<svg width="16" height="16" viewBox="0 0 16 16" fill="none" xmlns="http://www.w3.org/2000/svg">
<path fill-rule="evenodd" clip-rule="evenodd" d="M15.8003 7.99929C15.8003 12.3071 12.3081 15.7994 8.00026 15.7994C3.6924 15.7994 0.200195 12.3071 0.200195 7.99929C0.200195 3.69143 3.6924 0.199219 8.00026 0.199219C12.3081 0.199219 15.8003 3.69143 15.8003 7.99929ZM10.3951 11.1439V12.1439H5.93701V11.1439H7.40556V7.42588H6.29522V6.42588H8.86389V11.1439H10.3951ZM8.88013 4.58043C8.88013 5.05563 8.49491 5.44085 8.01971 5.44085C7.54452 5.44085 7.1593 5.05563 7.1593 4.58043C7.1593 4.10524 7.54452 3.72002 8.01971 3.72002C8.49491 3.72002 8.88013 4.10524 8.88013 4.58043ZM1.4002 7.99929C1.4002 11.6444 4.35515 14.5994 8.00026 14.5994C11.6454 14.5994 14.6003 11.6444 14.6003 7.99929C14.6003 4.35417 11.6454 1.39922 8.00026 1.39922C4.35515 1.39922 1.4002 4.35417 1.4002 7.99929Z" fill="#3483FA"/>
</svg>
