<svg width="196" height="28" viewBox="0 0 196 28" fill="none" xmlns="http://www.w3.org/2000/svg">
<path d="M137.381 8.8024C136.341 7.48945 134.761 6.83438 132.641 6.83438C130.521 6.83438 128.944 7.48945 127.903 8.8024C126.861 10.1139 126.341 11.6641 126.341 13.4528C126.341 15.2415 126.861 16.8284 127.903 18.1216C128.944 19.4119 130.524 20.0599 132.641 20.0599C134.759 20.0599 136.34 19.4133 137.381 18.1216C138.422 16.827 138.943 15.2712 138.943 13.4528C138.943 11.6344 138.424 10.1139 137.381 8.8024ZM134.803 16.3286C134.298 17.002 133.576 17.3408 132.631 17.3408C131.687 17.3408 130.963 17.002 130.454 16.3286C129.944 15.6552 129.692 14.6952 129.692 13.4528C129.692 12.2104 129.944 11.2533 130.454 10.5827C130.963 9.91206 131.688 9.57606 132.631 9.57606C133.574 9.57606 134.298 9.91206 134.803 10.5827C135.307 11.2533 135.561 12.2104 135.561 13.4528C135.561 14.6952 135.309 15.6552 134.803 16.3286Z" fill="#0A0080"/>
<path d="M110.782 7.70544C109.727 7.16756 108.519 6.8965 107.161 6.8965C105.07 6.8965 103.595 7.44427 102.738 8.53981C102.198 9.24146 101.895 10.1351 101.824 11.225H104.947C105.022 10.7436 105.177 10.3638 105.407 10.0829C105.728 9.70311 106.275 9.51252 107.05 9.51252C107.74 9.51252 108.264 9.60852 108.621 9.80476C108.976 9.99676 109.155 10.3497 109.155 10.8594C109.155 11.2787 108.923 11.585 108.457 11.7841C108.198 11.8984 107.767 11.993 107.164 12.0707L106.056 12.2076C104.799 12.3685 103.845 12.6354 103.2 13.0081C102.018 13.6942 101.427 14.7996 101.427 16.33C101.427 17.5088 101.792 18.4194 102.529 19.0632C103.261 19.707 104.193 19.9766 105.32 20.0289C112.379 20.3465 112.299 16.2862 112.364 15.442V10.769C112.364 9.2697 111.836 8.24757 110.781 7.70686L110.782 7.70544ZM109.142 14.7968C109.121 15.8839 108.811 16.6349 108.216 17.0458C107.62 17.458 106.97 17.6627 106.264 17.6627C105.817 17.6627 105.439 17.5371 105.128 17.29C104.816 17.0429 104.662 16.6406 104.662 16.0843C104.662 15.4618 104.916 15.0015 105.425 14.7036C105.727 14.5286 106.222 14.3789 106.912 14.2603L107.649 14.1234C108.015 14.0528 108.304 13.978 108.516 13.8975C108.73 13.8213 108.934 13.7168 109.142 13.5855V14.7968Z" fill="#0A0080"/>
<path d="M94.6887 9.67911C95.4956 9.67911 96.0877 9.9304 96.4722 10.4316C96.7332 10.8015 96.8974 11.2194 96.9619 11.6838H100.443C100.252 9.91487 99.6378 8.68239 98.5994 7.98356C97.5582 7.28755 96.2238 6.93743 94.5933 6.93743C92.6752 6.93743 91.1696 7.52897 90.0807 8.71345C88.9904 9.89934 88.4446 11.5539 88.4446 13.6815C88.4446 15.5662 88.9385 17.1022 89.9249 18.2867C90.9114 19.4698 92.4521 20.0627 94.5428 20.0627C96.6336 20.0627 98.2177 19.3526 99.2842 17.9338C99.9521 17.0542 100.327 16.121 100.405 15.1342H96.9352C96.8637 15.7879 96.6616 16.3187 96.3249 16.7295C95.9909 17.1361 95.4254 17.3436 94.6284 17.3436C93.5045 17.3436 92.7383 16.8284 92.3328 15.7949C92.1097 15.2429 91.996 14.513 91.996 13.6038C91.996 12.6947 92.1097 11.8885 92.3328 11.3097C92.7552 10.2269 93.5409 9.68334 94.6859 9.68334L94.6887 9.67911Z" fill="#0A0080"/>
<path d="M87.5108 6.93603C80.3574 6.93603 80.7812 13.3074 80.7812 13.3074V19.7804H84.0267V13.7097C84.0267 12.7144 84.153 11.9789 84.3986 11.4989C84.8448 10.649 85.7147 10.2241 87.0127 10.2241C87.1109 10.2241 87.2386 10.2297 87.3972 10.2368C87.5557 10.2452 87.7353 10.2579 87.9416 10.2834V6.96144C87.7971 6.95015 87.7045 6.94732 87.6638 6.94168C87.6217 6.93744 87.5712 6.93603 87.5108 6.93603Z" fill="#0A0080"/>
<path d="M78.1777 9.35158C77.6164 8.5158 76.9036 7.9045 76.0462 7.51485C75.1861 7.12944 74.2207 6.93602 73.1486 6.93602C71.3399 6.93602 69.8722 7.50921 68.7384 8.65416C67.6061 9.80335 67.0378 11.4495 67.0378 13.5982C67.0378 15.8923 67.665 17.5484 68.9209 18.5663C70.1739 19.5827 71.6234 20.0938 73.2637 20.0938C75.252 20.0938 76.7983 19.4896 77.9026 18.2825C78.499 17.6486 78.8722 17.0204 79.0294 16.3992H75.586C75.4499 16.5954 75.3039 16.7634 75.1426 16.8933C74.6837 17.2731 74.0621 17.3888 73.3282 17.3888C72.6351 17.3888 72.092 17.2829 71.6009 16.9724C70.7913 16.4712 70.3353 15.6241 70.2861 14.3803H79.2679C79.2791 13.3088 79.2469 12.4871 79.1599 11.9168C79.0111 10.9455 78.6814 10.0885 78.179 9.35158H78.1777ZM70.3647 12.2373C70.4798 11.4297 70.7688 10.7902 71.2235 10.3172C71.6795 9.8457 72.3208 9.60852 73.1486 9.60852C73.9092 9.60852 74.5476 9.83158 75.0626 10.2791C75.5747 10.7238 75.861 11.3789 75.9199 12.2373H70.3647Z" fill="#0A0080"/>
<path d="M60.588 6.89368C59.0809 6.89368 57.7788 7.55721 56.9032 8.6231C56.0711 7.55862 54.79 6.89368 53.2156 6.89368C50.0458 6.89368 48 9.23723 48 12.3389V19.779H50.9663V12.2669C50.9663 10.8947 51.8882 9.94876 53.2142 9.94876C55.1689 9.94876 55.3723 11.5808 55.3723 12.2669V19.779H58.3387V12.2669C58.3387 10.8947 59.283 9.94876 60.5866 9.94876C62.5426 9.94876 62.7685 11.5808 62.7685 12.2669V19.779H65.7334V12.3389C65.7334 9.14122 63.8251 6.89368 60.5866 6.89368H60.588Z" fill="#0A0080"/>
<path d="M122.104 5.30543L122.1 8.80522C121.738 8.21933 121.268 7.76192 120.687 7.43297C120.107 7.10403 119.444 6.93744 118.696 6.93744C117.074 6.93744 115.781 7.54451 114.812 8.75722C113.842 9.97276 113.358 11.7234 113.358 13.8396C113.358 15.6778 113.851 17.1827 114.836 18.3545C115.821 19.5249 117.749 20.0387 119.463 20.0387C125.441 20.0387 125.371 14.8829 125.371 14.8829L125.374 3.01552C125.374 3.01552 122.104 2.66399 122.104 5.30684V5.30543ZM121.48 16.3554C121.007 17.0387 120.309 17.379 119.399 17.379C118.488 17.379 117.805 17.0345 117.357 16.3484C116.91 15.6608 116.685 14.6599 116.685 13.5149C116.685 12.4518 116.904 11.5624 117.345 10.8452C117.785 10.1281 118.477 9.76805 119.42 9.76805C120.04 9.76805 120.582 9.9657 121.05 10.3596C121.811 11.0132 122.193 12.185 122.193 13.7013C122.193 14.7855 121.954 15.6707 121.48 16.354V16.3554Z" fill="#0A0080"/>
<path d="M151.358 6.86544C148.685 6.73838 147.334 7.37933 146.454 8.05557C145.238 8.98875 144.498 10.3695 144.498 12.5775V23.924H146.07C146.492 23.924 146.912 23.7785 147.222 23.4891C147.568 23.1672 147.742 22.7734 147.742 22.3131V18.0735C148.126 18.7371 148.631 19.227 149.269 19.5418C149.873 19.8256 150.573 19.9682 151.367 19.9682C152.861 19.9682 154.088 19.3696 155.042 18.1681C155.996 16.9342 156.472 15.3276 156.472 13.337C156.472 11.3464 156.02 9.93041 154.938 8.60475C154.062 7.53321 152.735 6.92897 151.357 6.86544H151.358ZM152.466 16.1789C151.988 16.8439 151.336 17.1742 150.51 17.1742C149.619 17.1742 148.934 16.8439 148.459 16.1789C147.981 15.5789 147.744 14.6825 147.744 13.4796C147.744 12.1878 147.966 11.2377 148.409 10.6377C148.887 9.97559 149.557 9.64241 150.414 9.64241C151.271 9.64241 151.988 9.97559 152.464 10.6377C152.943 11.3012 153.181 12.2471 153.181 13.4796C153.181 14.6189 152.944 15.5168 152.464 16.1789H152.466Z" fill="#0A0080"/>
<path d="M179.243 8.03581C178.141 7.19439 177.014 6.75532 175.075 6.80615C173.107 6.85979 171.676 7.41321 170.785 8.62734C169.895 9.84147 169.451 11.4283 169.451 13.3822C169.451 15.0538 169.786 16.402 170.457 17.4326C171.129 18.4561 171.933 19.1592 172.873 19.5347C173.807 19.9145 174.753 19.9922 175.706 19.7733C176.659 19.5503 177.416 19.0025 177.979 18.1173V18.9192C177.915 19.93 177.673 20.6867 177.254 21.1936C176.83 21.6962 176.361 22.0039 175.845 22.1155C175.334 22.2242 174.815 22.1649 174.301 21.9249C173.784 21.6891 173.403 21.3489 173.154 20.9098H169.733C170.618 23.5894 172.209 24.771 175.075 24.98C179.697 25.3146 181.17 21.3771 181.164 19.2524V12.5775C181.164 10.3709 180.45 8.95628 179.243 8.03439V8.03581ZM177.885 14.5935C177.759 15.3333 177.557 15.8796 177.275 16.2241C176.681 17.0429 175.759 17.3338 174.512 17.1008C173.262 16.8622 172.636 15.6566 172.636 13.4796C172.636 12.4688 172.821 11.5695 173.2 10.7803C173.576 9.99394 174.293 9.59864 175.354 9.59864C176.135 9.59864 176.729 9.88382 177.134 10.4499C177.541 11.0175 177.8 11.6641 177.909 12.3926C178.018 13.1168 178.009 13.8523 177.885 14.5935Z" fill="#0A0080"/>
<path d="M166.669 7.70544C165.614 7.16897 164.406 6.8965 163.046 6.8965C160.957 6.8965 159.484 7.44427 158.625 8.53981C158.086 9.24005 157.782 10.1337 157.712 11.2222H160.835C160.911 10.7408 161.065 10.361 161.294 10.0815C161.617 9.7017 162.164 9.5097 162.937 9.5097C163.63 9.5097 164.152 9.6057 164.509 9.80194C164.862 9.99535 165.042 10.3469 165.042 10.8579C165.042 11.2772 164.81 11.5836 164.346 11.7827C164.086 11.8956 163.657 11.9902 163.052 12.0678L161.946 12.2034C160.689 12.3643 159.734 12.6311 159.089 13.0038C157.907 13.6886 157.317 14.7954 157.317 16.3243C157.317 17.5032 157.682 18.4152 158.419 19.0576C159.151 19.7027 160.083 19.971 161.21 20.0246C168.265 20.3423 168.186 16.282 168.249 15.4392V10.7662C168.249 9.26828 167.725 8.24898 166.668 7.70686L166.669 7.70544ZM165.029 14.7968C165.009 15.8867 164.698 16.6335 164.104 17.0458C163.509 17.4566 162.858 17.6627 162.154 17.6627C161.706 17.6627 161.329 17.5371 161.017 17.2914C160.706 17.0444 160.55 16.642 160.55 16.0858C160.55 15.4632 160.806 15.0029 161.315 14.705C161.618 14.53 162.112 14.3803 162.801 14.2632L163.539 14.1262C163.907 14.0556 164.196 13.9808 164.403 13.9017C164.617 13.8241 164.824 13.7196 165.029 13.5883V14.7982V14.7968Z" fill="#0A0080"/>
<path d="M193.441 8.73604C192.398 7.42308 190.82 6.7666 188.7 6.7666C186.579 6.7666 185.004 7.42167 183.964 8.73604C182.923 10.0476 182.402 11.5963 182.402 13.3836C182.402 15.1709 182.923 16.7578 183.964 18.0524C185.004 19.3413 186.584 19.9893 188.7 19.9893C190.816 19.9893 192.398 19.3427 193.441 18.0524C194.479 16.7578 195 15.2034 195 13.3836C195 11.5638 194.481 10.0462 193.441 8.73604ZM190.861 16.258C190.357 16.9328 189.634 17.2716 188.691 17.2716C187.748 17.2716 187.021 16.9328 186.515 16.258C186.004 15.586 185.75 14.6274 185.75 13.385C185.75 12.1427 186.003 11.1869 186.515 10.5163C187.023 9.84569 187.748 9.50969 188.691 9.50969C189.634 9.50969 190.357 9.84428 190.861 10.5163C191.366 11.1855 191.618 12.1427 191.618 13.385C191.618 14.6274 191.366 15.586 190.861 16.258Z" fill="#0A0080"/>
<g clip-path="url(#clip0_15262_34653)">
<path d="M39.9926 13.065C39.9328 5.82525 31.0545 0 20.1453 0C20.059 0 19.9727 0 19.8864 0C16.1878 0.030933 12.6479 0.724114 9.57012 1.98956C4.05216 4.21673 0.302068 8.16632 0.0236643 12.6924C0.0153122 12.8175 0.0125282 12.9427 0.00974412 13.0678C0.00974412 13.1226 0.00278403 13.1775 0.00278403 13.2337C0.00278403 13.2506 0.00278403 13.2717 0.00278403 13.2928C0.00278403 13.3293 0 13.3659 0 13.4024C0 13.477 0 13.6021 0.00139202 13.7314C0.00139202 13.8636 0.00139202 13.9775 0.00139202 14.0056C0.00139202 14.0309 0.00417605 14.0576 0.00417605 14.083V14.1743C0.00417605 14.277 0.0125282 14.3782 0.0167042 14.4795C0.0208803 14.5723 0.0222723 14.6651 0.0278403 14.7565C0.243603 18.3616 2.17851 21.6362 5.52909 24.0293C9.16782 26.6291 14.1011 27.9986 19.8126 27.9986C19.9128 27.9986 20.0158 27.9986 20.116 27.9972C25.9848 27.948 31.0155 26.4913 34.6654 23.7847C38.1371 21.2102 40.0316 17.6768 39.9996 13.8369L39.994 13.0636L39.9926 13.065Z" fill="#0A0080"/>
<path d="M18.0367 18.6986C18.1829 18.6466 18.4042 18.5679 18.6019 18.5665C19.3967 18.5693 20.0496 19.2175 20.0566 20.0105C20.0621 20.8119 19.4204 21.4685 18.627 21.4756H18.6158C17.8446 21.4756 17.2141 20.8752 17.1793 20.1019C17.1653 19.77 16.9899 19.7194 16.8855 19.7194H16.8828C16.77 19.7194 16.6865 19.7855 16.6113 19.8544C16.4359 20.0203 16.2327 20.175 15.9306 20.1778C15.7942 20.182 15.6341 20.1455 15.4712 20.0794C14.6722 19.7602 14.6639 19.1584 14.6973 18.9152C14.7056 18.8561 14.7251 18.7197 14.6305 18.6241C14.5748 18.5665 14.4815 18.5454 14.4704 18.5426C14.3924 18.5257 14.3047 18.5538 14.2073 18.6241C13.9971 18.776 13.7257 18.9503 13.4974 18.9517C13.3735 18.9489 13.2454 18.9278 13.1187 18.88C11.9578 18.4357 12.0636 17.3952 12.0998 17.1646C12.1095 17.0915 12.1262 16.9565 12.0107 16.8848C11.8798 16.8047 11.7601 16.9242 11.6794 17.0044C11.4636 17.1914 11.2674 17.2588 11.0029 17.2265C10.3681 17.1576 9.88509 16.6613 9.88091 16.0735C9.87813 15.7755 9.99227 15.4957 10.2011 15.2834C10.4057 15.0753 10.6785 14.96 10.9681 14.96C11.5861 14.96 11.9606 15.2313 12.0817 15.7656C12.0859 15.7853 12.0886 15.8078 12.0914 15.8317C12.104 15.9259 12.1207 16.0553 12.2348 16.0904C12.3629 16.1298 12.4394 16.0089 12.4909 15.9287C12.5035 15.9076 12.5174 15.888 12.5299 15.8711L12.5675 15.8247C12.793 15.5449 13.0074 15.2805 13.8092 15.2749C13.9637 15.2777 14.1321 15.2988 14.302 15.3494C14.7474 15.483 14.998 15.8683 15.0467 16.4982C15.0634 16.6908 15.197 16.7766 15.314 16.7766H15.3195C15.442 16.7766 15.5214 16.6908 15.5478 16.6627C15.7288 16.4686 16.0127 16.2099 16.39 16.2071C16.5974 16.2071 16.7992 16.2521 17.015 16.3435C18.0618 16.7878 17.5885 18.1489 17.5843 18.1601C17.5217 18.3204 17.4159 18.5876 17.6386 18.731L17.6846 18.7521L17.7709 18.7647C17.8391 18.7647 17.9045 18.7408 18.0061 18.7043L18.0367 18.693V18.6986Z" fill="white"/>
<path d="M38.9046 11.5012C34.9541 12.4348 31.9181 13.7213 30.7223 14.2683C28.8306 12.6288 24.4611 8.85639 23.2751 7.9734C22.5804 7.45457 22.1044 7.18039 21.6868 7.05947C21.4947 7.00322 21.2302 6.93152 20.8933 6.94276C20.5787 6.94558 20.2432 7.00463 19.8966 7.11993C19.1129 7.37723 18.3473 8.00152 17.604 8.60893L17.5594 8.64549C16.8913 9.19103 16.1994 9.75486 15.6927 9.87437C15.4644 9.9278 15.2334 9.95592 15.0037 9.95733H14.9828C14.4497 9.95733 13.9597 9.8111 13.7676 9.59597C13.7731 9.58191 13.7885 9.5552 13.8219 9.51161L15.4686 7.68938C16.7437 6.38035 17.9464 5.14584 20.7304 5.05726C20.7764 5.05585 20.8223 5.05444 20.8683 5.05444C22.6027 5.02632 24.3553 5.81512 24.546 5.90229C26.2233 6.71217 27.9661 7.10868 29.6853 7.10305C31.4643 7.08899 33.2642 6.64328 35.1838 5.74763C37.1214 7.39411 38.4397 9.35976 38.9032 11.5054L38.9046 11.5012Z" fill="white"/>
<path d="M19.896 0.901367C19.9795 0.901367 20.0631 0.901367 20.1466 0.901367C22.868 0.901367 25.5156 1.27678 27.9349 1.9784C27.9906 1.99527 28.0477 2.01074 28.1033 2.02761C28.2189 2.06136 28.3316 2.09932 28.4458 2.13588C30.6744 2.85155 32.6497 3.84282 34.2825 5.03514C32.6678 5.72832 31.1602 6.07702 29.6847 6.08968C29.6596 6.08968 29.636 6.08968 29.6109 6.08968C28.0546 6.08968 26.4956 5.71848 24.9769 4.98593C24.8948 4.94656 22.9529 4.04107 20.915 4.04107H20.8607L20.6978 4.04388C18.2952 4.12262 16.9505 4.98734 16.0485 5.74238C15.1757 5.77894 14.4254 5.99688 13.7489 6.19372C13.1614 6.36386 12.6547 6.51009 12.1675 6.5143C12.0033 6.51149 11.743 6.50587 11.6205 6.50165L11.5537 6.49884C11.0066 6.48618 8.21839 5.82534 5.90625 4.98171C9.49765 2.43396 14.5785 0.947767 19.8946 0.902773L19.896 0.901367Z" fill="#00BCFF"/>
<path d="M4.99027 5.68457V5.68879C7.51957 6.70817 10.4512 7.43369 11.356 7.48572L11.5564 7.49978C11.7597 7.51384 11.9698 7.52227 12.18 7.5279C12.8106 7.52368 13.4301 7.3423 14.044 7.16373C14.2889 7.09202 14.5312 7.02172 14.7789 6.95985C14.7678 6.97251 14.7553 6.98376 14.7441 6.99641L13.0723 8.8538C12.9234 9.00846 12.6004 9.42465 12.8232 9.93505C12.9095 10.1361 13.0807 10.3259 13.3173 10.4834C13.7405 10.766 14.4866 10.9544 15.1826 10.9474C15.4457 10.946 15.6949 10.9179 15.9246 10.863C16.654 10.6915 17.3987 10.0841 18.2005 9.43028C18.813 8.92972 19.683 8.29279 20.3456 8.10297C20.5294 8.05235 20.7521 8.01861 20.9261 8.0172C20.9762 8.0172 21.0235 8.0172 21.0709 8.02423C21.5038 8.07625 21.9242 8.22248 22.6842 8.79053C24.0094 9.77898 29.6666 14.6861 30.3194 15.2527C30.3236 15.2555 30.6716 15.562 30.6521 16.0626C30.641 16.3382 30.4892 16.5856 30.2248 16.76C29.9839 16.9175 29.7348 16.999 29.4856 17.0004H29.4772C29.1084 17.0004 28.8536 16.8275 28.8522 16.8275C28.8439 16.8205 28.7868 16.7684 28.6949 16.6855C28.1729 16.213 26.5846 14.7747 25.929 14.2305C25.7884 14.1124 25.645 13.9971 25.4863 14.0084C25.3847 14.0084 25.2901 14.0548 25.2302 14.1321C25.0854 14.3163 25.162 14.5792 25.4195 14.7957L27.9015 17.2732C27.9015 17.2732 28.1757 17.5305 28.2063 17.8581C28.2258 18.2307 28.056 18.533 27.6843 18.7819C27.4171 18.9647 27.147 19.0575 26.8825 19.0589H26.8728C26.547 19.0589 26.3146 18.9155 26.2659 18.8845L25.8858 18.5133C25.2441 17.8862 24.5801 17.2381 24.0929 16.8331C23.9565 16.7206 23.8089 16.6152 23.6489 16.6152H23.6461C23.5542 16.6152 23.4679 16.6531 23.4011 16.7262C23.3315 16.8064 23.2452 16.9807 23.4428 17.2409C23.5041 17.3224 23.5737 17.3899 23.5751 17.3899L25.3833 19.4048C25.4543 19.4933 25.6659 19.8041 25.4265 20.1176L25.3708 20.1922C25.3207 20.2484 25.2664 20.3004 25.2177 20.344C24.9434 20.5746 24.569 20.6013 24.42 20.6027C24.3379 20.5999 24.2655 20.5985 24.1987 20.5858C23.9955 20.5507 23.9342 20.5001 23.9134 20.4762L23.8563 20.4157C23.1018 19.6325 22.5603 19.1517 22.236 18.8831C22.1288 18.7945 21.9826 18.6722 21.8142 18.6722H21.8114C21.714 18.6722 21.6235 18.7144 21.5608 18.7875C21.4091 18.9591 21.4759 19.2093 21.7335 19.4498L23.0962 20.9809C23.0962 20.9809 23.0893 20.9908 23.0865 20.9964C23.0517 21.047 22.8972 21.2172 22.3793 21.2875C22.3125 21.2959 22.2429 21.3015 22.1775 21.3001C21.6889 21.3001 21.1683 21.0878 20.8495 20.9289C20.9651 20.6379 21.0249 20.3215 21.0221 20.0066C21.018 19.3584 20.7632 18.751 20.3052 18.2954C19.8584 17.8511 19.271 17.6036 18.646 17.5966C18.6613 16.9456 18.4928 15.9206 17.3904 15.4552C17.0563 15.3132 16.725 15.2415 16.4034 15.2415H16.3867C16.164 15.2429 15.9482 15.278 15.745 15.3469C15.4916 14.9139 15.0991 14.5989 14.6035 14.433C14.3126 14.3346 14.0259 14.2755 13.7433 14.2868C13.2881 14.291 12.8691 14.4189 12.4932 14.6692C12.1021 14.2361 11.5578 13.9901 10.9801 13.9901H10.9634C10.4623 13.9943 9.96952 14.1911 9.59646 14.5342C9.01877 14.1223 7.07134 12.9735 2.19232 11.8993C1.97099 11.8501 1.49214 11.7165 1.08984 11.6026C1.55756 9.44996 2.89947 7.40838 4.98888 5.68738L4.99027 5.68457Z" fill="white"/>
<path d="M39.0727 13.8604C39.0727 13.8604 39.0727 13.8717 39.0713 13.8787C39.0587 14.0432 39.0365 14.2063 39.0142 14.368C38.5841 17.1675 36.7021 19.7757 33.5965 21.8187C30.0051 24.1822 25.2137 25.5081 20.105 25.5503C20.0201 25.5503 19.9366 25.5503 19.8517 25.5503C9.43245 25.5503 0.952281 20.1272 0.896601 13.3866C0.895209 13.1715 0.906345 12.9395 0.928617 12.6765C1.11793 12.7215 1.82647 12.8846 1.98655 12.9198C6.79458 13.9561 8.59724 15.0542 9.04407 15.3733C8.96473 15.6011 8.92436 15.8387 8.92575 16.082C8.9355 17.2223 9.85701 18.1447 10.9845 18.1447C11.0792 18.1447 11.1697 18.1376 11.2616 18.1264C11.462 18.9025 11.9993 19.4902 12.7858 19.7925C13.0252 19.8825 13.2675 19.9289 13.5041 19.9289C13.6252 19.9303 13.7616 19.9163 13.8883 19.891C14.0553 20.2481 14.4019 20.6966 15.1244 20.9863C15.3972 21.0945 15.6617 21.1409 15.9304 21.1466C16.1086 21.1452 16.2853 21.1184 16.4538 21.065C16.8533 21.9101 17.6899 22.4472 18.6198 22.4472H18.6406C19.2531 22.4429 19.8489 22.1941 20.2916 21.7624C20.7092 21.9832 21.4428 22.2925 22.207 22.2995C22.3128 22.2995 22.4144 22.2911 22.5146 22.2784C23.3373 22.166 23.7243 21.8313 23.9025 21.5698C23.9164 21.5501 23.9303 21.529 23.9428 21.5079C24.0876 21.5445 24.2811 21.5768 24.5024 21.5796C24.9576 21.5754 25.3877 21.4165 25.8179 21.0931C26.209 20.8035 26.4958 20.3957 26.5765 20.0316C26.6809 20.0456 26.7923 20.0499 26.8939 20.0527C27.3588 20.0484 27.8112 19.8994 28.24 19.6098C28.9889 19.105 29.1838 18.4695 29.2019 17.9802C29.3035 17.9942 29.4023 18.0012 29.5025 17.9998C29.9382 17.9956 30.3642 17.8606 30.7665 17.5963C31.2899 17.2518 31.6017 16.7274 31.6449 16.1214C31.6713 15.7614 31.592 15.3902 31.4221 15.064C32.9868 14.3807 35.8585 13.3486 39.0629 12.5781C39.0796 12.7933 39.0991 13.007 39.0991 13.2249C39.0991 13.4428 39.0908 13.6495 39.0741 13.859L39.0727 13.8604Z" fill="#00BCFF"/>
</g>
<defs>
<clipPath id="clip0_15262_34653">
<rect width="40" height="27.9986" fill="white"/>
</clipPath>
</defs>
</svg>
