<svg viewBox="-0.5 -1 21 23" fill="none" xmlns="http://www.w3.org/2000/svg">
    <path
        d="M16.8046 13.3494L17.5144 12.8586V10.0046L16.8046 9.74894V8.13819C16.8046 7.64458 16.6085 7.17119 16.2594 6.82216C16.1034 6.66611 14.9434 6.27704 14.9434 6.27704C14.9434 6.27704 13.0823 3.30165 11.9585 3.32929C10.8348 3.35693 7.14899 6.27704 7.14899 6.27704H5.26544C4.77184 6.27704 4.29845 6.47313 3.94941 6.82216C3.60038 7.17119 3.4043 7.64458 3.4043 8.13819V14.8383C3.4043 15.3319 3.60038 15.8053 3.94941 16.1543C4.29845 16.5034 4.77184 16.6995 5.26544 16.6995L14.9434 16.6995C15.437 16.6995 15.9104 16.5034 16.2594 16.1543C16.6085 15.8053 16.8046 15.3319 16.8046 14.8383L16.8046 13.3494Z"
        fill="#FFE600" />
    <path
        d="M14.9434 16.699V17.299V16.699ZM14.9434 6.27658V6.87658V6.27658ZM13.1829 3.8944L13.6654 3.53778L13.6629 3.5344L13.1829 3.8944ZM11.1658 3.5489L10.833 3.04967V3.04967L11.1658 3.5489ZM6.74152 5.77733C6.4658 5.96115 6.3913 6.33367 6.57511 6.60938C6.75892 6.8851 7.13144 6.95961 7.40716 6.77579L6.74152 5.77733ZM14.9434 9.62664V10.2266V9.62664ZM14.9434 13.3489L14.9434 12.7489H14.9434V13.3489ZM13.0823 11.4878H13.6823H13.0823ZM5.26544 6.27657L5.26544 5.67657H5.26544V6.27657ZM3.4043 8.13772H2.8043H3.4043ZM5.26544 16.699L5.26544 16.099H5.26544V16.699ZM16.8046 14.8379L16.2046 14.8379V14.8379H16.8046ZM13.6629 3.5344C13.3425 3.10723 12.8707 2.81897 12.3444 2.72882L12.1418 3.91159C12.3658 3.94996 12.5665 4.07262 12.7029 4.2544L13.6629 3.5344ZM12.3444 2.72882C11.8181 2.63867 11.2773 2.75348 10.833 3.04967L11.4987 4.04813C11.6877 3.92209 11.9179 3.87323 12.1418 3.91159L12.3444 2.72882ZM10.833 3.04967L6.74152 5.77733L7.40716 6.77579L11.4987 4.04813L10.833 3.04967ZM14.9434 10.2266H16.8046V9.02664H14.9434V10.2266ZM16.8046 10.2266C16.8429 10.2266 16.8796 10.2419 16.9067 10.2689L17.7552 9.42042C17.5031 9.16829 17.1611 9.02664 16.8046 9.02664V10.2266ZM16.9067 10.2689C16.9338 10.296 16.949 10.3328 16.949 10.3711H18.149C18.149 10.0145 18.0074 9.67256 17.7552 9.42042L16.9067 10.2689ZM16.949 10.3711V12.6045H18.149V10.3711H16.949ZM16.949 12.6045C16.949 12.6428 16.9338 12.6795 16.9067 12.7066L17.7552 13.5552C18.0074 13.303 18.149 12.961 18.149 12.6045H16.949ZM16.9067 12.7066C16.8796 12.7337 16.8429 12.7489 16.8046 12.7489V13.9489C17.1611 13.9489 17.5031 13.8073 17.7552 13.5552L16.9067 12.7066ZM16.8046 12.7489L14.9434 12.7489L14.9434 13.9489L16.8046 13.9489L16.8046 12.7489ZM14.9434 12.7489C14.6089 12.7489 14.2882 12.6161 14.0516 12.3796L13.2031 13.2281C13.6647 13.6896 14.2907 13.9489 14.9434 13.9489V12.7489ZM14.0516 12.3796C13.8151 12.143 13.6823 11.8223 13.6823 11.4878H12.4823C12.4823 12.1405 12.7416 12.7665 13.2031 13.2281L14.0516 12.3796ZM13.6823 11.4878C13.6823 11.1533 13.8151 10.8325 14.0516 10.596L13.2031 9.74749C12.7416 10.209 12.4823 10.835 12.4823 11.4878H13.6823ZM14.0516 10.596C14.2882 10.3595 14.6089 10.2266 14.9434 10.2266V9.02664C14.2907 9.02664 13.6647 9.28594 13.2031 9.74749L14.0516 10.596ZM17.4046 9.62664V8.13772H16.2046V9.62664H17.4046ZM17.4046 8.13772C17.4046 7.48498 17.1453 6.85898 16.6837 6.39743L15.8352 7.24596C16.0717 7.48247 16.2046 7.80325 16.2046 8.13772H17.4046ZM16.6837 6.39743C16.2221 5.93587 15.5961 5.67658 14.9434 5.67658V6.87658C15.2779 6.87658 15.5987 7.00945 15.8352 7.24596L16.6837 6.39743ZM14.9434 5.67658L5.26544 5.67657L5.26544 6.87657L14.9434 6.87658V5.67658ZM5.26544 5.67657C4.61271 5.67657 3.98671 5.93587 3.52515 6.39743L4.37368 7.24596C4.61019 7.00944 4.93097 6.87657 5.26544 6.87657V5.67657ZM3.52515 6.39743C3.0636 6.85898 2.8043 7.48498 2.8043 8.13772H4.0043C4.0043 7.80324 4.13717 7.48247 4.37368 7.24596L3.52515 6.39743ZM2.8043 8.13772V14.8379H4.0043V8.13772H2.8043ZM2.8043 14.8379C2.8043 15.4906 3.0636 16.1166 3.52515 16.5781L4.37368 15.7296C4.13717 15.4931 4.0043 15.1723 4.0043 14.8379H2.8043ZM3.52515 16.5781C3.98671 17.0397 4.61271 17.299 5.26544 17.299V16.099C4.93097 16.099 4.61019 15.9661 4.37368 15.7296L3.52515 16.5781ZM5.26544 17.299L14.9434 17.299V16.099L5.26544 16.099L5.26544 17.299ZM14.9434 17.299C15.5961 17.299 16.2222 17.0397 16.6837 16.5781L15.8352 15.7296C15.5987 15.9661 15.2779 16.099 14.9434 16.099V17.299ZM16.6837 16.5781C17.1453 16.1166 17.4046 15.4906 17.4046 14.8379H16.2046C16.2046 15.1723 16.0717 15.4931 15.8352 15.7296L16.6837 16.5781ZM17.4046 14.8379L17.4046 13.3489L16.2046 13.3489L16.2046 14.8379L17.4046 14.8379ZM15.4259 5.91997L13.6654 3.53779L12.7004 4.25101L14.4609 6.63318L15.4259 5.91997Z"
        fill="black" fill-opacity="0.9" />
</svg>
