<svg viewBox="0 0 25 24" fill="none" xmlns="http://www.w3.org/2000/svg">
    <path fill-rule="evenodd" clip-rule="evenodd"
        d="M9.79996 4H6.18723L2.47656 12.4659H5.48899V19.9801L14.7813 19.9998L16.241 18.363L17.7112 19.9932H20.4766V17.6057L18.744 15.7274L20.4766 13.8662V11.5273L20.4763 11.5273V4H17.0698L16.2982 6.17095L15.5292 4H11.0691V6.89679L9.79996 4Z"
        fill="white" />
    <path fill-rule="evenodd" clip-rule="evenodd"
        d="M12.0847 11.5197L12.0854 11.5214H10.0355L9.48583 10.1996H6.50502L5.95534 11.5214H3.95508L6.8706 4.92055H9.18161L12.0567 11.4562V4.91895L14.8678 4.92945L16.3144 8.98653L17.7702 4.91895H20.4756V11.5197L18.7351 11.5355V7.00065L17.0913 11.5197H15.5023L13.8246 6.98621V11.5197H12.0847ZM7.12129 8.71775L7.99608 6.61636L8.86956 8.71775H7.12129ZM6.48798 12.4463V19.0523H12.0321H12.0605H14.3535L16.2519 16.9378L18.1686 19.0523H20.4757V18.9578L17.4583 15.7447L20.4757 12.4988V12.4463H18.1921L16.3028 14.5398L14.4188 12.4463H12.0605H12.0321H6.48798ZM12.0605 12.4767V13.9675H8.2924V15.0005H11.9704V16.4968H8.2924V17.5114H12.0605V19.0218L15.116 15.7447L12.0605 12.4767Z"
        fill="#016FD0" />
</svg>
