<svg viewBox="0 0 25 24" fill="none" xmlns="http://www.w3.org/2000/svg">
    <path
        d="M6.39676 12.17C6.46224 12.192 6.53844 12.2248 6.62537 12.2682C6.77777 12.3557 6.90816 12.4754 7.01767 12.6278C7.14862 12.8457 7.21354 13.107 7.21354 13.4118C7.21354 14.4578 6.58134 14.9805 5.31807 14.9805H2.86775C2.80227 14.9805 2.76953 14.9477 2.76953 14.8823V9.84951C2.76953 9.78404 2.80227 9.7513 2.86775 9.7513H5.44959C5.90737 9.7513 6.2771 9.87717 6.56045 10.1272C6.84325 10.3779 6.98549 10.7103 6.98549 11.1241C6.98549 11.364 6.93074 11.5762 6.82236 11.7613C6.71286 11.9471 6.57118 12.0831 6.39676 12.17ZM5.2859 14.2286C5.65619 14.2286 5.92826 14.1688 6.10268 14.0491C6.27653 13.9294 6.36402 13.7223 6.36402 13.4282C6.36402 13.1341 6.27653 12.9275 6.10268 12.8073C5.92826 12.6876 5.65562 12.6278 5.2859 12.6278H3.75C3.66251 12.6278 3.61905 12.6605 3.61905 12.726V14.1315C3.61905 14.197 3.66251 14.2297 3.75 14.2297H5.2859V14.2286ZM3.75 10.5032C3.68452 10.5032 3.65178 10.5359 3.65178 10.6014V11.7777C3.65178 11.8432 3.68452 11.8759 3.75 11.8759H5.25316C5.81932 11.8759 6.10268 11.6473 6.10268 11.1895C6.10268 10.7318 5.81932 10.5032 5.25316 10.5032H3.75ZM11.6914 12.17C11.7569 12.192 11.8224 12.2248 11.8873 12.2682C12.0611 12.3557 12.1921 12.4754 12.2796 12.6278C12.432 12.8457 12.5082 13.107 12.5082 13.4118C12.5082 14.4578 11.876 14.9805 10.6127 14.9805H8.16183C8.09635 14.9805 8.06362 14.9477 8.06362 14.8823V9.84951C8.06362 9.78404 8.09635 9.7513 8.16183 9.7513H10.7437C11.1794 9.7513 11.5441 9.87717 11.8387 10.1272C12.1328 10.3779 12.2801 10.7103 12.2801 11.1241C12.2801 11.364 12.2254 11.5762 12.117 11.7613C12.0069 11.9471 11.8653 12.0831 11.6914 12.17ZM9.01135 10.5032C8.94587 10.5032 8.91313 10.5359 8.91313 10.6014V11.7777C8.91313 11.8432 8.94587 11.8759 9.01135 11.8759H10.5472C11.1134 11.8759 11.3968 11.6473 11.3968 11.1895C11.3968 10.7318 11.1134 10.5032 10.5472 10.5032H9.01135ZM10.58 14.2286C10.9503 14.2286 11.2223 14.1688 11.3968 14.0491C11.5706 13.9294 11.6581 13.7223 11.6581 13.4282C11.6581 13.1341 11.5706 12.9275 11.3968 12.8073C11.2223 12.6876 10.9497 12.6278 10.58 12.6278H9.01135C8.94587 12.6278 8.91313 12.6605 8.91313 12.726V14.1315C8.91313 14.197 8.94587 14.2297 9.01135 14.2297H10.58V14.2286ZM17.1814 9.81678C17.2028 9.77331 17.2248 9.7513 17.2468 9.7513H18.0964C18.1178 9.7513 18.1398 9.76259 18.1618 9.78404C18.1833 9.80605 18.1833 9.82807 18.1618 9.84951L15.4496 14.9477C15.4276 14.9697 15.4005 14.9805 15.3677 14.9805C15.335 14.9805 15.3074 14.9697 15.2859 14.9477L12.5737 9.84951C12.5517 9.82807 12.546 9.80605 12.5573 9.78404C12.568 9.76259 12.5951 9.7513 12.6391 9.7513H13.4559C13.4994 9.7513 13.5321 9.77331 13.5541 9.81678L15.2859 13.085C15.2859 13.107 15.3074 13.1177 15.3514 13.1177C15.3948 13.1177 15.4276 13.107 15.4496 13.085L17.1814 9.81678ZM18.1618 14.1637C18.1398 14.2077 18.1071 14.2292 18.0636 14.2292H17.2141C17.1921 14.2292 17.1757 14.2184 17.165 14.1964C17.1537 14.175 17.1486 14.153 17.1486 14.131L19.8614 9.03274C19.8829 9.01129 19.9156 9 19.9596 9C20.0031 9 20.0358 9.01129 20.0579 9.03274L22.7695 14.131C22.7695 14.153 22.7639 14.175 22.7532 14.1964C22.7419 14.2184 22.7255 14.2292 22.7041 14.2292H21.8545C21.8105 14.2292 21.7778 14.2077 21.7563 14.1637L20.0567 10.8955C20.0347 10.852 20.002 10.83 19.9585 10.83C19.9145 10.83 19.8817 10.852 19.8603 10.8955L18.1618 14.1637Z"
        fill="#004580" />
</svg>
