<svg viewBox="0 0 25 24" fill="none" xmlns="http://www.w3.org/2000/svg">
    <g clip-path="url(#clip0_9928_2094)">
        <path
            d="M14.0801 9.24658V15.6343H19.5029V14.2541H16.1075V12.7763H19.1853V11.4817H16.1075V10.8221H19.5029V9.24658H14.0801Z"
            fill="#F3921A" />
        <path d="M20.2363 11.2863H20.9691V9.91839L22.2882 11.6771V9.13672H20.2363V11.2863Z" fill="#323184" />
        <path d="M20.2363 12.6545H20.9691V13.9736L22.2882 12.2148V15.5369H20.2363V12.6545Z" fill="#323184" />
        <path
            d="M23.0254 9.77079V9.24512H23.2487C23.3048 9.24512 23.3459 9.25 23.3713 9.25928C23.3967 9.26857 23.4172 9.28567 23.4323 9.3096C23.4475 9.33354 23.4553 9.36139 23.4553 9.39266C23.4553 9.43223 23.4436 9.46447 23.4206 9.49037C23.3977 9.51626 23.363 9.53238 23.3166 9.53873C23.3395 9.55192 23.3586 9.56707 23.3732 9.5827C23.3879 9.59833 23.4084 9.62716 23.4338 9.66819L23.4978 9.77079H23.3708L23.2941 9.65647C23.2667 9.61543 23.2482 9.59003 23.2379 9.57928C23.2276 9.56853 23.2174 9.5612 23.2062 9.5573C23.1949 9.55339 23.1773 9.55143 23.1529 9.55143H23.1314V9.77079H23.0254ZM23.1314 9.4674H23.2101C23.2609 9.4674 23.2926 9.46545 23.3053 9.46105C23.318 9.45666 23.3278 9.44933 23.3351 9.43858C23.3425 9.42783 23.3459 9.41513 23.3459 9.39901C23.3459 9.38142 23.341 9.36725 23.3317 9.35602C23.3224 9.34478 23.3087 9.33843 23.2916 9.3355C23.2829 9.33452 23.2574 9.33354 23.214 9.33354H23.1309V9.46692L23.1314 9.4674Z"
            fill="#323184" />
        <path
            d="M23.262 10.0162C22.9821 10.0162 22.7539 9.78802 22.7539 9.50808C22.7539 9.22815 22.9821 9 23.262 9C23.5419 9 23.7701 9.22815 23.7701 9.50808C23.7701 9.78802 23.5419 10.0162 23.262 10.0162ZM23.262 9.09771C23.0358 9.09771 22.8516 9.28189 22.8516 9.50808C22.8516 9.73428 23.0358 9.91846 23.262 9.91846C23.4882 9.91846 23.6724 9.73428 23.6724 9.50808C23.6724 9.28189 23.4882 9.09771 23.262 9.09771Z"
            fill="#323184" />
        <path
            d="M8.10449 15.5952V9.14648H10.5677C11.4085 9.14648 11.9566 9.17971 12.2121 9.24566C12.6044 9.34483 12.9332 9.55979 13.198 9.89102C13.4628 10.2223 13.5952 10.6507 13.5952 11.1754C13.5952 11.5804 13.519 11.9209 13.3661 12.1964C13.2137 12.4725 13.0197 12.6889 12.7842 12.8467C12.5492 13.004 12.3099 13.1086 12.0671 13.1594C11.7368 13.2224 11.259 13.2537 10.6327 13.2537H10.1217V15.5947H8.10352L8.10449 15.5952ZM10.0743 10.4655V11.8823H10.5746C10.9346 11.8823 11.176 11.8564 11.2971 11.8042C11.4188 11.7519 11.5135 11.6703 11.5829 11.5589C11.6518 11.4475 11.6865 11.3181 11.6865 11.1705C11.6865 10.9888 11.6381 10.8393 11.5414 10.7211C11.4447 10.6028 11.322 10.5291 11.174 10.4997C11.0651 10.4773 10.8457 10.4655 10.5159 10.4655H10.0743Z"
            fill="#323184" />
        <path
            d="M1.76953 13.4359L3.62599 13.3382C3.69927 13.6738 3.79893 14.0095 4.02268 14.1834C4.24644 14.3573 4.36417 14.4443 4.76673 14.4443C5.20984 14.4443 5.25039 14.3627 5.47365 14.1985C5.62412 14.0842 5.69936 13.9303 5.69936 13.7383C5.69936 13.6074 5.65881 13.4989 5.57722 13.413C5.49173 13.3314 5.30071 13.1579 5.00368 13.0881C3.6211 12.7813 3.03827 12.5008 2.66796 12.2473C2.15548 11.8955 2.04605 11.5042 2.04605 10.8779C2.04605 10.3132 2.3167 9.9365 2.7598 9.55152C3.20291 9.16753 3.79258 9.07275 4.72374 9.07275C5.6549 9.07275 6.269 9.21785 6.69989 9.50853C7.13078 9.79922 7.2495 10.4001 7.41219 10.9688L5.55573 11.0665C5.48635 10.8129 5.43164 10.5525 5.23866 10.4172C5.04569 10.2824 4.82292 10.1871 4.57864 10.1871C4.33437 10.1871 4.22396 10.2296 4.02855 10.3562C3.8986 10.446 3.83313 10.5628 3.83313 10.7059C3.83313 10.8286 3.8898 10.9331 4.00412 11.0191C4.1585 11.1339 4.3505 11.1974 5.26309 11.4065C6.17569 11.6151 6.71553 11.92 7.07753 12.2224C7.43515 12.5292 7.61444 12.9571 7.61444 13.5053C7.61444 14.1028 7.36626 14.6162 6.87039 15.0462C6.37403 15.4756 5.73795 15.6905 4.76624 15.6905C3.88394 15.6905 3.08762 15.5108 2.57367 15.1502C2.05924 14.7902 1.92831 14.0539 1.76953 13.4359Z"
            fill="#323184" />
    </g>
    <defs>
        <clipPath id="clip0_9928_2094">
            <rect width="22" height="6.69058" fill="white" transform="translate(1.76953 9)" />
        </clipPath>
    </defs>
</svg>
