<svg viewBox="0 0 25 24" fill="none" xmlns="http://www.w3.org/2000/svg">
    <path
        d="M11.3422 7.53349C11.817 7.37677 12.3235 7.29319 12.8489 7.29319C15.1491 7.29319 17.0694 8.91053 17.5084 11.0607L20.7687 10.4025C20.0217 6.7499 16.7592 4 12.8489 4C11.9521 4 11.0932 4.14418 10.2871 4.41165L11.3422 7.53349Z"
        fill="#FFCB05" />
    <path
        d="M7.49597 17.9938L9.70117 15.526C8.7178 14.663 8.09739 13.403 8.09739 11.9988C8.09739 10.5967 8.7178 9.33666 9.70117 8.47575L7.49597 6.00586C5.82465 7.47275 4.76953 9.61457 4.76953 11.9988C4.76953 14.3851 5.82465 16.5269 7.49597 17.9938Z"
        fill="#00A4E0" />
    <path
        d="M17.5084 12.9434C17.0673 15.0915 15.1491 16.7067 12.8511 16.7067C12.3235 16.7067 11.8149 16.6231 11.3422 16.4643L10.2871 19.5903C11.0932 19.8557 11.9542 19.9999 12.8511 19.9999C16.7571 19.9999 20.0175 17.2542 20.7687 13.6058L17.5084 12.9434Z"
        fill="#EF4123" />
</svg>
