<svg viewBox="0 0 25 24" fill="none" xmlns="http://www.w3.org/2000/svg">
    <g clip-path="url(#clip0_9928_2293)">
        <path
            d="M7.80898 7H5.52887C4.52142 7.04798 3.69789 7.45671 3.46011 8.29956C3.33612 8.73913 3.26789 9.2219 3.17093 9.67756C2.67804 11.9945 2.241 14.3752 1.76953 16.6459H19.5208C20.8931 16.6459 21.8354 16.3538 22.0901 15.2567C22.2083 14.7471 22.3217 14.1698 22.4349 13.6098C22.876 11.4267 23.3176 9.2436 23.7695 7H7.80898Z"
            fill="#B82126" />
        <path
            d="M16.968 12.7631C16.7219 13.0058 16.0308 13.0748 16.1015 12.4945C16.1602 12.0126 16.6811 11.9102 17.2458 11.9798C17.2038 12.2434 17.1556 12.5781 16.968 12.7631ZM16.1904 10.8831C16.1669 11.0161 16.1308 11.1364 16.1015 11.2636C16.3834 11.1924 17.2612 10.9741 17.3458 11.3531C17.3739 11.479 17.3254 11.6128 17.2902 11.7112C16.4964 11.6355 15.8495 11.7683 15.6793 12.3378C15.5654 12.7193 15.6921 13.0947 15.9349 13.1995C16.4024 13.4013 16.9712 13.1702 17.168 12.8526C17.1476 12.9626 17.1282 13.0736 17.1347 13.2107H17.5457C17.5501 12.8142 17.6074 12.4932 17.6679 12.1364C17.7196 11.8326 17.8167 11.5317 17.8012 11.2636C17.766 10.6494 16.7558 10.8666 16.1904 10.8831ZM20.312 12.9533C19.9905 12.9603 19.8305 12.7598 19.8232 12.4274C19.8104 11.8452 20.0639 11.1985 20.5787 11.1405C20.8183 11.1135 20.9919 11.1696 21.1675 11.23C21.0063 11.8839 21.0645 12.9371 20.312 12.9533ZM21.3786 9.87598C21.3376 10.2376 21.2829 10.5853 21.212 10.9167C20.0401 10.5431 19.3215 11.4115 19.3344 12.4833C19.3369 12.6906 19.3723 12.8962 19.5011 13.0428C19.7229 13.2955 20.358 13.356 20.6787 13.1436C20.7408 13.1025 20.8042 13.0277 20.8454 12.9757C20.8762 12.9366 20.9253 12.8343 20.9342 12.8638C20.9173 12.9774 20.8922 13.0826 20.8898 13.2107H21.3231C21.4065 12.0042 21.6647 10.9736 21.8563 9.87598H21.3786ZM9.14683 12.7743C8.89124 13.047 8.2629 13.0428 8.21364 12.584C8.19216 12.3844 8.26601 12.1751 8.30251 11.9686C8.33943 11.7596 8.366 11.559 8.40245 11.3755C8.6542 11.0658 9.39396 11.0285 9.46902 11.5433C9.53416 11.9904 9.3585 12.5485 9.14683 12.7743ZM9.52458 10.8831C9.12026 10.7301 8.62746 10.9127 8.41384 11.0865C8.41458 11.0941 8.40875 11.0952 8.40245 11.0957C8.40612 11.0926 8.41005 11.0895 8.41384 11.0865C8.4138 11.0858 8.41376 11.0852 8.41358 11.0846C8.41721 11.0098 8.44331 10.9578 8.44693 10.8831H8.03587C7.86458 12.031 7.66144 13.1468 7.44705 14.2514H7.92475C7.9939 13.8212 8.03958 13.3674 8.13587 12.9645C8.24496 13.3883 8.95733 13.3073 9.25791 13.1436C9.87818 12.8058 10.3566 11.1979 9.52458 10.8831ZM11.7909 11.6888H10.6689C10.7044 11.429 10.9365 11.1434 11.3021 11.1293C11.6462 11.1161 11.8926 11.2566 11.7909 11.6888ZM11.3354 10.8384C10.9903 10.8651 10.6985 10.9652 10.4911 11.1852C10.2368 11.4551 10.0308 12.0518 10.0911 12.5952C10.1772 13.3705 11.1355 13.3427 11.902 13.1548C11.9151 13.0187 11.9478 12.9024 11.9687 12.7743C11.6529 12.8933 11.1047 13.0594 10.78 12.8526C10.5348 12.6965 10.5333 12.301 10.6133 11.9574C11.1285 11.9409 11.6639 11.944 12.1798 11.9574C12.2125 11.7138 12.3062 11.4482 12.2242 11.2076C12.1161 10.89 11.7292 10.8078 11.3354 10.8384ZM7.13599 10.8831C7.12305 10.885 7.12391 10.9008 7.12486 10.9167C7.0196 11.7096 6.87716 12.4651 6.72493 13.2107H7.20263C7.31742 12.4124 7.4489 11.631 7.61369 10.8831H7.13599ZM19.6011 10.8943C19.1788 10.6817 18.8273 11.0385 18.6901 11.2524C18.7292 11.1426 18.7314 10.9957 18.7678 10.8831H18.3456C18.2318 11.6823 18.0946 12.458 17.9346 13.2107H18.4234C18.4265 12.9022 18.4866 12.674 18.5345 12.3714C18.6367 11.7254 18.7866 11.017 19.5344 11.23C19.5592 11.1207 19.5695 10.9968 19.6011 10.8943ZM14.235 12.6624C14.191 12.5478 14.1796 12.3586 14.1906 12.2147C14.2153 11.8914 14.3323 11.4977 14.5128 11.3195C14.7619 11.0736 15.2537 11.1143 15.646 11.2524C15.6581 11.1192 15.6847 11.0004 15.7015 10.8719C15.0582 10.7661 14.4477 10.8319 14.124 11.1741C13.8071 11.509 13.5994 12.2787 13.7462 12.7631C13.9181 13.3299 14.6887 13.3607 15.3127 13.1436C15.3403 13.0297 15.3549 12.9027 15.3794 12.7855C15.0384 12.9639 14.3866 13.0566 14.235 12.6624ZM13.9685 10.8831C13.5448 10.7108 13.2119 11.002 13.0575 11.2748C13.0925 11.1534 13.1069 11.0113 13.1352 10.8831H12.713C12.6098 11.6893 12.4577 12.4462 12.3131 13.2107H12.7908C12.8578 12.7569 12.8867 12.1453 13.0352 11.7112C13.1539 11.3643 13.4646 11.0688 13.9129 11.23C13.9192 11.1021 13.9556 11.0044 13.9685 10.8831ZM6.26945 9.94311C6.2012 10.3891 6.12433 10.8265 6.04725 11.2636C5.55233 11.2688 5.04702 11.2882 4.56967 11.2524C4.65982 10.8248 4.72449 10.3714 4.81404 9.94311H4.28082C4.08989 11.034 3.91627 12.1423 3.70312 13.2107H4.24747C4.33289 12.6626 4.41273 12.1089 4.52519 11.5881C4.98935 11.5766 5.54565 11.5565 5.99169 11.5993C5.89972 12.1408 5.78859 12.6629 5.70284 13.2107H6.24723C6.42211 12.1037 6.60643 11.0062 6.82492 9.94311H6.26945ZM7.62482 10.4355C7.72007 10.3694 7.8427 10.0684 7.70259 9.94311C7.65821 9.90344 7.58392 9.89192 7.48039 9.90956C7.38433 9.9259 7.32907 9.95875 7.29154 10.0102C7.23115 10.0931 7.17585 10.3427 7.26928 10.4355C7.3603 10.5258 7.56421 10.4775 7.62482 10.4355Z"
            fill="white" />
    </g>
    <defs>
        <clipPath id="clip0_9928_2293">
            <rect width="22" height="9.65161" fill="white" transform="translate(1.76953 7)" />
        </clipPath>
    </defs>
</svg>
