<svg viewBox="0 0 24 24" fill="none" xmlns="http://www.w3.org/2000/svg">
    <path fill-rule="evenodd" clip-rule="evenodd"
        d="M21.873 18.9409H4.11605C2.9474 18.9409 2 18.0465 2 16.9433V5.11986C2 5.0537 2.05684 5 2.12696 5H19.884C21.0526 5 22 5.8944 22 6.99771V18.8211C22 18.8873 21.9432 18.9409 21.873 18.9409Z"
        fill="white" />
    <path fill-rule="evenodd" clip-rule="evenodd"
        d="M10.8747 15.4435C10.903 15.438 10.9946 15.4289 11.0803 15.4027C11.5091 15.2716 11.7896 14.8636 11.7807 14.3919C11.7722 13.9395 11.47 13.5342 11.0517 13.4146C10.5716 13.2772 10.0698 13.5481 9.89391 14.0394C9.64349 14.7391 10.1056 15.4462 10.8747 15.4435ZM11.7832 12.6009C11.7832 11.9843 11.792 11.4063 11.7783 10.8287C11.7737 10.638 11.8418 10.5864 12.0307 10.5946C12.305 10.6064 12.5803 10.6012 12.855 10.5964C12.9871 10.5942 13.0423 10.6352 13.0419 10.7691C13.0377 12.0329 13.0733 13.2979 13.0293 14.5604C12.9871 15.769 11.9676 16.6133 10.6939 16.5666C9.5048 16.5231 8.56684 15.625 8.56252 14.4822C8.55863 13.4664 9.13203 12.6359 10.0501 12.3618C10.6435 12.1846 11.2168 12.2454 11.7832 12.6009Z"
        fill="#CA2939" />
    <path fill-rule="evenodd" clip-rule="evenodd"
        d="M3.0646 5.0001C3.05038 5.09874 3.03053 5.11636 3.03049 5.19099C3.02896 9.07294 3.02655 12.9549 3.0307 16.8368C3.03197 18.045 3.93708 18.9065 5.20561 18.9234C5.21848 18.9235 5.21729 18.9234 5.23024 18.9234C5.32551 18.9234 5.30795 18.9246 5.26554 18.9233C5.25382 18.923 5.24205 18.9233 5.23024 18.9234C4.94572 18.9235 4.64545 18.9402 4.32957 18.9402C2.95786 18.9402 2.04398 18.0816 2.04364 16.7887C2.04267 12.9401 2.04301 9.14841 2.04309 5.29975C2.04309 5.00389 2.04699 5.00054 2.36274 5.00014C2.59983 4.99986 2.83691 5.0001 3.0646 5.0001Z"
        fill="#CA2939" />
    <path fill-rule="evenodd" clip-rule="evenodd"
        d="M14.5495 14.2082C15.1316 13.9758 15.6719 13.7601 16.2408 13.533C15.9038 13.2912 15.5719 13.238 15.2162 13.3684C14.8351 13.508 14.6359 13.788 14.5495 14.2082ZM14.8587 15.1882C15.2659 15.6057 15.9681 15.5774 16.3271 15.1569C16.3825 15.092 16.4927 15.0389 16.5807 15.0344C16.8759 15.0193 17.1726 15.0281 17.4688 15.0288C17.7132 15.0294 17.7386 15.0637 17.6467 15.2887C17.3533 16.0068 16.7833 16.4046 15.9939 16.5268C14.7851 16.7139 13.7002 16.0295 13.4071 14.9073C13.1689 13.9952 13.5964 13.0245 14.4541 12.5298C15.2649 12.0622 16.331 12.1506 17.0499 12.7503C17.4176 13.057 17.6142 13.4558 17.7232 13.9004C17.7573 14.0398 17.6607 14.0689 17.5593 14.109C16.7285 14.4377 15.8985 14.7683 15.0684 15.0987C15.0042 15.1242 14.9413 15.1529 14.8587 15.1882Z"
        fill="#CA2939" />
    <path fill-rule="evenodd" clip-rule="evenodd"
        d="M4.33156 12.766C4.33156 12.101 4.33647 11.4359 4.32818 10.771C4.32606 10.6029 4.38785 10.5479 4.56065 10.5542C4.82795 10.5639 5.09618 10.5636 5.36352 10.5543C5.53847 10.5483 5.59586 10.61 5.59514 10.7751C5.5896 12.0254 5.59197 13.2756 5.59218 14.5259C5.5923 15.1112 5.91733 15.3873 6.54275 15.3233C6.67496 15.3097 6.726 15.3463 6.72494 15.4685C6.72249 15.7412 6.72109 16.0139 6.72553 16.2865C6.72752 16.4084 6.66197 16.4449 6.54592 16.4573C5.25035 16.5957 4.33338 15.8287 4.33169 14.6015C4.33084 13.9897 4.33152 13.3779 4.33156 12.766Z"
        fill="#CA2939" />
    <path fill-rule="evenodd" clip-rule="evenodd"
        d="M18.1423 13.6566C18.3395 12.4639 19.4695 12.1446 20.3324 12.2504C20.4509 12.2649 20.4835 12.3201 20.482 12.4229C20.4781 12.6891 20.4774 12.9553 20.4821 13.2215C20.4843 13.3446 20.4312 13.385 20.3035 13.3763C20.1779 13.3677 20.0477 13.3627 19.9249 13.3838C19.5694 13.4448 19.3515 13.7077 19.3497 14.0717C19.3464 14.7838 19.3427 15.496 19.3527 16.2079C19.3553 16.3937 19.3098 16.4727 19.097 16.459C18.8374 16.4422 18.5752 16.4464 18.315 16.4579C18.1431 16.4656 18.079 16.4171 18.0843 16.2469C18.0963 15.8612 18.088 15.475 18.088 15.089C18.1019 15.089 18.0652 14.1233 18.1423 13.6566Z"
        fill="#CA2939" />
    <path fill-rule="evenodd" clip-rule="evenodd"
        d="M6.99875 14.4172C6.99875 13.8054 7.00404 13.1936 6.99541 12.582C6.99295 12.4072 7.05529 12.3448 7.23972 12.3521C7.51396 12.3631 7.78909 12.3589 8.06367 12.3537C8.20807 12.351 8.26004 12.4039 8.25958 12.542C8.25564 13.7855 8.25568 15.0289 8.25949 16.2723C8.25991 16.4113 8.20964 16.4592 8.06261 16.4543C7.75638 16.4639 7.62239 16.4524 7.26 16.4555C7.05918 16.4667 6.99029 16.4087 6.99431 16.2124C7.00658 15.6142 6.99875 15.0156 6.99875 14.4172Z"
        fill="#CA2939" />
    <path fill-rule="evenodd" clip-rule="evenodd"
        d="M8.27454 10.6035C8.27454 10.9565 8.27869 11.3056 8.26811 11.6544C8.26705 11.689 8.17712 11.7485 8.12692 11.7499C7.81138 11.7588 7.49541 11.7538 7.17957 11.755C7.07762 11.7554 7.00013 11.7277 7.05142 11.617C7.27505 11.1341 7.64061 10.7859 8.16683 10.5968C8.18981 10.5885 8.22054 10.5995 8.27454 10.6035Z"
        fill="#CA2939" />
    <path fill-rule="evenodd" clip-rule="evenodd"
        d="M21.873 18.9409H4.11605C2.9474 18.9409 2 18.0465 2 16.9433V5.11986C2 5.0537 2.05684 5 2.12696 5H19.884C21.0526 5 22 5.8944 22 6.99771V18.8211C22 18.8873 21.9432 18.9409 21.873 18.9409V18.9409Z"
        stroke="#CA2939" stroke-width="0.590909" />
</svg>
