<svg viewBox="0 0 25 24" fill="none" xmlns="http://www.w3.org/2000/svg">
    <path
        d="M22.2856 15.6301V15.3901H22.2256L22.1556 15.5501L22.0856 15.3901H22.0256V15.6301H22.0656V15.4501L22.1356 15.6101H22.1856L22.2556 15.4501V15.6301H22.2856ZM21.8856 15.6301V15.4301H21.9656V15.3901H21.7656V15.4301H21.8456V15.6301H21.8856Z"
        fill="#00A2E5" />
    <path d="M15.1756 16.6604H9.76562V6.94043H15.1756V16.6604Z" fill="#7375CF" />
    <path
        d="M10.1166 11.8001C10.1166 9.83012 11.0366 8.07012 12.4766 6.94012C11.4266 6.11012 10.0966 5.62012 8.65656 5.62012C5.24656 5.62012 2.47656 8.39012 2.47656 11.8001C2.47656 15.2101 5.24656 17.9801 8.65656 17.9801C10.0966 17.9801 11.4266 17.4901 12.4766 16.6601C11.0366 15.5301 10.1166 13.7701 10.1166 11.8001Z"
        fill="#EB001B" />
    <path
        d="M22.4766 11.8001C22.4766 15.2101 19.7066 17.9801 16.2966 17.9801C14.8566 17.9801 13.5266 17.4901 12.4766 16.6601C13.9166 15.5301 14.8366 13.7701 14.8366 11.8001C14.8366 9.83012 13.9166 8.07012 12.4766 6.94012C13.5266 6.11012 14.8566 5.62012 16.2966 5.62012C19.7066 5.62012 22.4766 8.39012 22.4766 11.8001Z"
        fill="#00A2E5" />
</svg>
