<svg viewBox="0 0 25 24" fill="none" xmlns="http://www.w3.org/2000/svg">
    <path
        d="M18.7273 11.8683L15.4145 6.72289C15.3403 6.60746 15.2139 6.53857 15.0765 6.53857H12.8692C12.8003 6.53857 12.7371 6.57604 12.7046 6.63622C12.6716 6.69678 12.6743 6.76982 12.7118 6.82773L16.165 12.1911C16.1722 12.2025 16.1722 12.2168 16.165 12.2282L12.7118 17.5761C12.6743 17.634 12.6716 17.707 12.7046 17.7676C12.7375 17.8281 12.8007 17.8656 12.8696 17.8656H15.0776C15.2146 17.8656 15.341 17.7967 15.4152 17.6817L18.7273 12.5526C18.8612 12.3444 18.8612 12.0761 18.7273 11.8683Z"
        fill="#FE5000" />
    <path
        d="M19.4068 12.9155C19.372 12.8618 19.3133 12.8296 19.2494 12.8296C19.1854 12.8296 19.1264 12.8618 19.0915 12.9155L18.1821 14.3234C17.9887 14.6232 17.9887 15.0104 18.1828 15.3097L19.7327 17.7032C19.7982 17.8043 19.9094 17.8648 20.0298 17.8648H22.3165C22.3748 17.8648 22.4286 17.833 22.4566 17.7819C22.4846 17.7308 22.4823 17.6684 22.4505 17.6192L19.4068 12.9155Z"
        fill="#50007F" />
    <path
        d="M19.0918 11.4877C19.1266 11.5414 19.1856 11.5736 19.2496 11.5736C19.3136 11.5736 19.3726 11.5414 19.4071 11.4877L22.4504 6.78361C22.4822 6.7344 22.4844 6.67233 22.4564 6.62086C22.4284 6.56939 22.3747 6.5376 22.3164 6.5376H20.0296C19.9093 6.5376 19.798 6.59815 19.7325 6.69921L18.1827 9.09269C17.9889 9.39206 17.9885 9.77924 18.1819 10.079L19.0918 11.4877Z"
        fill="#50007F" />
    <path
        d="M11.781 6.53418H9.847C9.7433 6.53418 9.65965 6.6182 9.65965 6.72153V13.5992C9.65625 13.7127 9.59796 13.7468 9.53286 13.6363L5.06685 6.70487C4.99835 6.59852 4.88064 6.53418 4.75385 6.53418H2.66618C2.55529 6.53418 2.47656 6.62464 2.47656 6.7238V17.6803C2.47656 17.7897 2.56588 17.8699 2.66618 17.8699H4.60019C4.70389 17.8699 4.78753 17.7859 4.78753 17.6826V10.8049C4.79094 10.6914 4.84923 10.6573 4.91432 10.7678L9.38034 17.6992C9.44884 17.8056 9.56693 17.8699 9.69334 17.8699H11.781C11.8919 17.8699 11.9706 17.7794 11.9706 17.6803V6.7238C11.9706 6.61442 11.8809 6.53418 11.781 6.53418Z"
        fill="#FE5000" />
</svg>
