<svg viewBox="0 0 24 24" fill="none" xmlns="http://www.w3.org/2000/svg">
    <path
        d="M5.72605 9C3.89898 9 2.24203 10.4608 2.02382 12.259C1.80561 14.0572 3.11119 15.518 4.93457 15.518C6.75794 15.518 8.41858 14.0572 8.6368 12.259C8.85501 10.4608 7.54943 9 5.72605 9ZM6.90588 12.259C6.79862 13.1488 6.07371 13.8718 5.17497 13.8718C4.27623 13.8718 3.63638 13.1488 3.74364 12.259C3.8509 11.3692 4.66827 10.6462 5.56332 10.6462C6.45836 10.6462 7.00944 11.3692 6.90218 12.259H6.90588ZM21.1859 9.30773C21.1748 9.21504 21.0935 9.1446 20.9973 9.1446H18.8337C18.7264 9.1446 18.6265 9.20392 18.5748 9.30032L15.3237 15.3141C15.3053 15.3475 15.3311 15.392 15.3718 15.392H16.8882C16.9955 15.392 17.0953 15.3327 17.1471 15.2363L19.6029 10.6462H19.6806L19.958 12.8893C19.9617 12.919 19.9358 12.9486 19.9062 12.9486H19.0297C18.7967 12.9486 18.6894 13.2378 18.8632 13.3936L19.847 14.2463C20.0468 14.4206 20.1762 14.6616 20.2095 14.9248L20.2465 15.2251C20.2576 15.3215 20.339 15.392 20.4351 15.392H21.9478C21.9811 15.392 22.0033 15.3623 21.9996 15.3326L21.1896 9.31144L21.1859 9.30773ZM15.2794 13.6902L14.1957 13.1118C14.0588 13.0376 13.8887 13.071 13.7926 13.1933C13.7334 13.2675 13.6705 13.3416 13.6224 13.3861C13.3006 13.7013 12.9234 13.8793 12.4389 13.8793C11.5106 13.8793 10.9854 13.1748 10.9854 12.4481C10.9854 11.7214 11.8175 10.6499 12.8161 10.6499C13.8147 10.6499 13.6964 10.8612 13.9553 11.1801C14.0477 11.295 14.2142 11.3284 14.3473 11.2617C14.6765 11.0985 15.5605 10.6573 15.5937 10.6425C15.6196 10.6277 15.6307 10.5943 15.6196 10.5683C15.6048 10.5387 15.5863 10.5053 15.5863 10.5016C15.1092 9.61918 14.1513 9.00371 12.9789 9.00371C10.9521 9.00371 9.25075 10.7352 9.25075 12.6594C9.25075 14.5837 10.4972 15.5217 12.1874 15.5217C13.8776 15.5217 14.5692 14.8395 15.2535 13.8348C15.2646 13.8199 15.2831 13.7903 15.2979 13.7643C15.3163 13.7384 15.3053 13.7013 15.2794 13.6865V13.6902Z"
        fill="#0F6EE2" />
</svg>
