<svg viewBox="0 0 25 24" fill="none" xmlns="http://www.w3.org/2000/svg">
    <path
        d="M2.76953 8.21934C2.76953 7.55995 3.30628 7.0249 3.96906 7.0249H21.5672C22.2295 7.0249 22.7668 7.55995 22.7668 8.21934V15.7749C22.7668 16.4342 22.2295 16.9687 21.5672 16.9687H3.96906C3.30628 16.9687 2.76953 16.4342 2.76953 15.7749V8.21934Z"
        fill="white" />
    <path fill-rule="evenodd" clip-rule="evenodd"
        d="M3.88654 7C3.27738 7 2.7832 7.49196 2.7832 8.09845V8.13335H22.7694V8.09845C22.7694 7.49196 22.2757 7 21.6666 7H3.88654ZM22.7695 15.9012V15.874H2.78337V15.9012C2.78337 16.5077 3.27755 16.9997 3.88671 16.9997H21.6667C22.2759 16.9997 22.7695 16.5077 22.7695 15.9012Z"
        fill="#FBB110" />
    <path
        d="M16.6153 11.9878C16.6153 13.5231 17.8651 14.7677 19.4074 14.7677C20.9491 14.7677 22.1995 13.5231 22.1995 11.9878C22.1995 10.4519 20.9491 9.20731 19.4074 9.20731C17.8651 9.20731 16.6153 10.4519 16.6153 11.9878ZM3.30337 11.9878C3.30337 13.5231 4.55374 14.7677 6.09599 14.7677C7.63768 14.7677 8.88806 13.5231 8.88806 11.9878C8.88806 10.4519 7.63768 9.20731 6.09599 9.20731C4.55374 9.20731 3.30337 10.4519 3.30337 11.9878ZM22.7694 15.3475H9.00249C9.25068 15.1741 9.48174 14.9368 9.73381 14.6166L11.1362 12.8348L11.7487 13.6055L12.4302 12.7028L11.8344 11.9474L13.2616 10.1334C13.7149 9.55801 12.8481 8.8817 12.3949 9.45711L11.1334 11.0606L9.851 9.43584C9.39717 8.86207 8.53207 9.54001 8.9859 10.1143L10.4353 11.948L8.86705 13.9403C8.30986 14.6483 7.75376 15.2973 6.64987 15.3475H2.7832V8.65918H16.4777C16.2422 8.83044 16.02 9.06005 15.779 9.36657L14.3771 11.1479L13.7641 10.3778L13.0831 11.2804L13.679 12.0352L12.2511 13.8493C11.7984 14.4247 12.6652 15.101 13.1179 14.5256L14.3799 12.9226L15.6623 14.5468C16.1162 15.1211 16.9813 14.4432 16.5274 13.8689L15.078 12.0347L16.6463 10.0429C17.1581 9.39166 17.6695 8.79062 18.6059 8.65918H22.7694V15.3475ZM17.7358 11.9878C17.7358 11.0682 18.4843 10.3232 19.4074 10.3232C20.3305 10.3232 21.0784 11.0682 21.0784 11.9878C21.0784 12.9068 20.3305 13.6518 19.4074 13.6518C18.4843 13.6518 17.7358 12.9068 17.7358 11.9878ZM4.42439 11.9878C4.42439 11.0682 5.17285 10.3232 6.09599 10.3232C7.01857 10.3232 7.76703 11.0682 7.76703 11.9878C7.76703 12.9068 7.01857 13.6518 6.09599 13.6518C5.17285 13.6518 4.42439 12.9068 4.42439 11.9878Z"
        fill="#E70020" />
</svg>
