<svg viewBox="0 0 25 24" fill="none" xmlns="http://www.w3.org/2000/svg">
    <path fill-rule="evenodd" clip-rule="evenodd"
        d="M8.61125 7.75111C9.23896 7.75111 9.82937 7.99552 10.2733 8.43919L12.6818 10.8481C12.8553 11.0216 13.1385 11.0223 13.3124 10.8479L15.7122 8.44797C16.1561 8.0043 16.7465 7.75989 17.3742 7.75989H17.6633L14.6153 4.71193C13.666 3.76269 12.1269 3.76269 11.1778 4.71193L8.13845 7.75112L8.61125 7.75111ZM17.3744 16.2401C16.7467 16.2401 16.1563 15.9957 15.7124 15.552L13.3126 13.1522C13.1441 12.9833 12.8504 12.9838 12.682 13.1522L10.2734 15.5608C9.82951 16.0044 9.2391 16.2489 8.61138 16.2489H8.13845L11.1779 19.2881C12.1271 20.2373 13.6661 20.2373 14.6154 19.2881L17.6634 16.2401H17.3744ZM18.2156 8.43855L20.0575 10.2804C21.0067 11.2297 21.0067 12.7686 20.0575 13.7178L18.2156 15.5597C18.175 15.5434 18.1311 15.5333 18.0847 15.5333H17.2472C16.8143 15.5333 16.3904 15.3577 16.0845 15.0515L13.6847 12.652C13.2498 12.2167 12.4909 12.2169 12.0556 12.6518L9.64702 15.0603C9.34107 15.3665 8.91722 15.542 8.48425 15.542H7.45448C7.41055 15.542 7.36951 15.5524 7.33069 15.567L5.48148 13.7178C4.53222 12.7686 4.53222 11.2297 5.48148 10.2804L7.33076 8.43121C7.36951 8.44581 7.41055 8.45616 7.45448 8.45616H8.48425C8.91722 8.45616 9.34107 8.6317 9.64702 8.93793L12.0558 11.3466C12.2803 11.571 12.5752 11.6833 12.8703 11.6833C13.1651 11.6833 13.4602 11.571 13.6847 11.3464L16.0845 8.9467C16.3904 8.64054 16.8143 8.46493 17.2472 8.46493H18.0847C18.1311 8.46493 18.175 8.45479 18.2156 8.43855Z"
        fill="#4AB7A8" />
</svg>
