<svg viewBox="0 0 25 24" fill="none" xmlns="http://www.w3.org/2000/svg">
    <path fill-rule="evenodd" clip-rule="evenodd"
        d="M6.97675 15.2897H5.07281L3.64508 9.31627C3.57731 9.04149 3.43342 8.79857 3.22177 8.68408C2.69357 8.39636 2.11152 8.16738 1.47656 8.05189V7.82191H4.54367C4.96698 7.82191 5.28446 8.16738 5.33737 8.56859L6.07816 12.8774L7.98118 7.82191H9.83221L6.97675 15.2897ZM10.8909 15.2897H9.09277L10.5734 7.82191H12.3715L10.8909 15.2897ZM14.6978 9.89094C14.7507 9.48873 15.0682 9.25875 15.4386 9.25875C16.0206 9.20101 16.6547 9.31649 17.1838 9.60322L17.5013 7.99537C16.9721 7.76539 16.3901 7.6499 15.8619 7.6499C14.1167 7.6499 12.8468 8.6843 12.8468 10.1199C12.8468 11.2121 13.7463 11.7855 14.3813 12.131C15.0682 12.4754 15.3328 12.7054 15.2798 13.0499C15.2798 13.5666 14.7507 13.7966 14.2225 13.7966C13.5876 13.7966 12.9526 13.6243 12.3715 13.3366L12.054 14.9455C12.689 15.2322 13.3759 15.3477 14.0109 15.3477C15.9677 15.4044 17.1838 14.371 17.1838 12.8199C17.1838 10.8666 14.6978 10.7521 14.6978 9.89094ZM23.4765 15.2897L22.0488 7.82191H20.5152C20.1977 7.82191 19.8802 8.05189 19.7744 8.39636L17.1306 15.2897H18.9817L19.3511 14.1986H21.6255L21.8371 15.2897H23.4765ZM20.7799 9.83307L21.3081 12.6476H19.8274L20.7799 9.83307Z"
        fill="#1434CB" />
</svg>
