<svg viewBox="0 0 17 16" fill="none" xmlns="http://www.w3.org/2000/svg">
    <g clip-path="url(#clip0_10236_26203)">
        <path
            d="M1.46185 8.00016V8.60016H2.66185V8.00016H1.46185ZM1.22852 10.0668H0.628516V11.2668H1.22852V10.0668ZM3.22852 12.0668H2.62852V13.2668H3.22852V12.0668ZM5.22852 14.0668H4.62852V15.2668H5.22852V14.0668ZM8.75198 5.3335V4.7335V5.3335ZM8.60425 7.86005L8.75901 7.28034L8.75484 7.27926L8.60425 7.86005ZM8.76956 7.90436L8.92815 7.3257L8.9263 7.3252L8.76956 7.90436ZM8.87871 7.93428L9.03952 7.35622L9.0373 7.35561L8.87871 7.93428ZM8.68869 10.6668L8.68735 11.2668L8.68869 10.6668ZM14.7952 8.00016C14.7952 11.3507 12.079 14.0668 8.72852 14.0668V15.2668C12.7418 15.2668 15.9952 12.0134 15.9952 8.00016H14.7952ZM2.66185 8.00016C2.66185 4.64964 5.37799 1.9335 8.72852 1.9335V0.733496C4.71525 0.733496 1.46185 3.98689 1.46185 8.00016H2.66185ZM8.72852 1.9335C12.079 1.9335 14.7952 4.64964 14.7952 8.00016H15.9952C15.9952 3.98689 12.7418 0.733496 8.72852 0.733496V1.9335ZM4.06185 10.0668H1.22852V11.2668H4.06185V10.0668ZM6.06185 12.0668H3.22852V13.2668H6.06185V12.0668ZM7.39518 14.0668H5.22852V15.2668H7.39518V14.0668ZM11.1014 5.58521C10.8205 5.36232 10.5126 5.14083 10.1267 4.98124C9.73521 4.81933 9.2948 4.7335 8.75198 4.7335V5.9335C9.1616 5.9335 9.4428 5.99697 9.66812 6.09015C9.89903 6.18564 10.1032 6.32503 10.3556 6.52527L11.1014 5.58521ZM8.75198 4.7335C8.20558 4.7335 7.66331 4.84398 7.23784 5.1243C6.78575 5.42217 6.49827 5.89498 6.49827 6.49356H7.69827C7.69827 6.32362 7.76141 6.21639 7.89806 6.12636C8.06134 6.01878 8.34592 5.9335 8.75198 5.9335V4.7335ZM6.49827 6.49356C6.49827 7.09449 6.74012 7.55366 7.15262 7.87664C7.52398 8.16741 8.00562 8.32467 8.45365 8.44084L8.75484 7.27926C8.32622 7.16812 8.05487 7.05901 7.89241 6.9318C7.77107 6.8368 7.69827 6.72638 7.69827 6.49356H6.49827ZM8.44948 8.43975C8.50518 8.45462 8.5592 8.46902 8.61282 8.48353L8.9263 7.3252C8.87024 7.31002 8.81389 7.295 8.75901 7.28035L8.44948 8.43975ZM8.61098 8.48303L8.72013 8.51294L9.0373 7.35561L8.92814 7.3257L8.61098 8.48303ZM8.71791 8.51233C9.08264 8.61379 9.41127 8.71387 9.65048 8.86148C9.86648 8.99476 9.92325 9.10852 9.92325 9.24801H11.1232C11.1232 8.55051 10.7105 8.10553 10.2806 7.84026C9.87398 7.58932 9.38035 7.45104 9.03952 7.35622L8.71791 8.51233ZM9.92325 9.24801C9.92325 9.51996 9.83564 9.69329 9.69415 9.81083C9.53742 9.94104 9.23472 10.068 8.69003 10.0668L8.68735 11.2668C9.40024 11.2684 10.0148 11.1045 10.461 10.7339C10.9224 10.3505 11.1232 9.81306 11.1232 9.24801H9.92325ZM8.69003 10.0668C7.96029 10.0652 7.61075 9.78033 7.08841 9.38876L6.36862 10.3489C6.88128 10.7332 7.51927 11.2642 8.68735 11.2668L8.69003 10.0668ZM8.12852 4.00014V5.3335H9.32852V4.00014H8.12852ZM8.12852 10.6668V12.0002H9.32852V10.6668H8.12852Z"
            fill="black" />
    </g>
    <defs>
        <clipPath id="clip0_10236_26203">
            <rect width="16" height="16" fill="white" transform="translate(0.728516)" />
        </clipPath>
    </defs>
</svg>
