<svg viewBox="0 0 21 15" fill="none" xmlns="http://www.w3.org/2000/svg">
    <path
        d="M7.00872 5.17587C7.00382 5.18543 6.90794 5.28462 6.97012 5.36436C7.12176 5.55822 7.59049 5.66934 8.06447 5.56297C8.34668 5.49966 8.70836 5.21184 9.05878 4.93387C9.39329 4.63005 9.77706 4.38536 10.1937 4.21028C10.4598 4.11282 10.7505 4.10522 11.0214 4.18862C11.2964 4.2908 11.5517 4.43976 11.776 4.62891C12.4338 5.12354 15.079 7.43251 15.5362 7.83151C16.9407 7.24743 18.3948 6.79064 19.881 6.46665C19.6877 5.28148 18.9749 4.15165 17.8813 3.26383C16.357 3.90404 14.37 4.28737 12.5486 3.39801C11.9297 3.11785 11.2605 2.9657 10.5814 2.95068C9.13629 2.9843 8.51028 3.6096 7.84783 4.2716L7.00872 5.17587Z"
        fill="white" />
    <path
        d="M15.4295 8.08276C15.3982 8.0549 12.3192 5.36057 11.6214 4.83625C11.3784 4.62002 11.0786 4.4777 10.7574 4.42602C10.6191 4.41501 10.48 4.42839 10.3464 4.46555C9.9344 4.6207 9.55327 4.84781 9.22075 5.13628C8.83087 5.44703 8.46307 5.73949 8.12155 5.81601C7.7089 5.90078 7.27956 5.83628 6.91004 5.634C6.82352 5.58106 6.7538 5.50467 6.70897 5.41368C6.68428 5.34397 6.68089 5.26849 6.69923 5.19684C6.71757 5.1252 6.75681 5.06063 6.81196 5.01135L7.66179 4.0922C7.76068 3.99373 7.85999 3.89496 7.96211 3.79795C7.70002 3.83735 7.44112 3.89565 7.18744 3.97239C6.8953 4.06943 6.59128 4.12613 6.28381 4.14092C5.97396 4.10956 5.66604 4.06143 5.3614 3.99674C4.45303 3.7836 3.56634 3.48687 2.71265 3.11035C1.50452 4.00969 0.717834 5.11389 0.484375 6.3524C0.657955 6.39825 1.11281 6.50197 1.23036 6.52804C3.96439 7.13588 4.81579 7.76203 4.97027 7.89285C5.06113 7.79059 5.17398 7.71026 5.30036 7.6579C5.42673 7.60555 5.56333 7.58252 5.69988 7.59057C5.83643 7.59861 5.96938 7.63751 6.08874 7.70434C6.20809 7.77117 6.31073 7.8642 6.38895 7.97641C6.57334 7.82735 6.80346 7.74637 7.04056 7.74712C7.17377 7.7484 7.30586 7.77155 7.43156 7.81563C7.5534 7.85458 7.66551 7.91909 7.76042 8.00485C7.85532 8.09061 7.93082 8.19563 7.98188 8.31291C8.10134 8.25877 8.23111 8.23117 8.36226 8.23199C8.51913 8.23398 8.67392 8.26812 8.81707 8.3323C9.01612 8.42561 9.1776 8.58371 9.27509 8.78074C9.37258 8.97777 9.4003 9.20206 9.35372 9.41689C9.38989 9.41299 9.42624 9.41107 9.46262 9.41113C9.74997 9.41159 10.0254 9.52598 10.2286 9.72922C10.4317 9.93245 10.546 10.208 10.5463 10.4953C10.5463 10.674 10.5017 10.8499 10.4166 11.0071C10.6996 11.18 11.0265 11.2675 11.358 11.2592C11.4406 11.2592 11.5224 11.2422 11.5982 11.2091C11.674 11.1761 11.7421 11.1277 11.7983 11.0671C11.8256 11.0287 11.854 10.9838 11.8276 10.9514L11.0561 10.0947C11.0561 10.0947 10.9292 9.97451 10.9711 9.92824C11.0145 9.88055 11.093 9.94891 11.1487 9.99536C11.5411 10.3231 12.0203 10.818 12.0203 10.818C12.0287 10.8234 12.0602 10.8861 12.2375 10.9179C12.3434 10.9363 12.452 10.9332 12.5568 10.9088C12.6615 10.8844 12.7603 10.8391 12.8472 10.7757C12.8964 10.7345 12.9413 10.6885 12.9814 10.6384C12.9787 10.641 12.9757 10.6434 12.9724 10.6454C13.0264 10.5706 13.0537 10.4798 13.0497 10.3876C13.0457 10.2955 13.0107 10.2073 12.9503 10.1376L12.0497 9.12623C12.0497 9.12623 11.9209 9.00696 11.9651 8.95949C12.0041 8.9178 12.0869 8.9806 12.1434 9.02743C12.4284 9.2659 12.8313 9.66987 13.2174 10.0485C13.3461 10.1355 13.4991 10.1795 13.6544 10.1741C13.8097 10.1688 13.9593 10.1143 14.0817 10.0185C14.182 9.96317 14.2649 9.88113 14.3213 9.7815C14.3777 9.68187 14.4054 9.56854 14.4013 9.45412C14.3819 9.31104 14.3149 9.17866 14.2112 9.07822L12.9814 7.84128C12.9814 7.84128 12.8511 7.73028 12.8973 7.6743C12.935 7.62702 13.0188 7.69497 13.0745 7.74126C13.4661 8.06918 14.5268 9.04193 14.5268 9.04193C14.6518 9.12259 14.798 9.16411 14.9467 9.16115C15.0955 9.1582 15.2399 9.1109 15.3616 9.02533C15.4397 8.97961 15.5055 8.91551 15.5533 8.8386C15.601 8.76168 15.6293 8.67427 15.6356 8.58396C15.6392 8.49052 15.6227 8.39738 15.5871 8.3109C15.5516 8.22442 15.4978 8.14661 15.4295 8.08276Z"
        fill="white" />
    <path
        d="M9.46225 9.65071C9.31777 9.67099 9.17511 9.70259 9.03559 9.74524C9.02039 9.73543 9.04726 9.6587 9.06501 9.61454C9.08358 9.5708 9.33474 8.81481 8.72232 8.55246C8.58528 8.47894 8.42816 8.45161 8.27434 8.47454C8.12053 8.49748 7.97822 8.56945 7.86859 8.67975C7.84296 8.7065 7.83132 8.70427 7.82847 8.67048C7.82482 8.52934 7.77707 8.39288 7.69193 8.28026C7.60678 8.16764 7.48851 8.0845 7.35371 8.04251C7.16279 7.98376 6.958 7.98825 6.76985 8.05533C6.5817 8.1224 6.42025 8.24846 6.30955 8.41473C6.28983 8.26568 6.22044 8.12763 6.11258 8.02288C6.00472 7.91814 5.86469 7.85282 5.71513 7.83747C5.56556 7.82213 5.41519 7.85766 5.28831 7.93833C5.16143 8.01899 5.06546 8.14008 5.01589 8.28202C4.96632 8.42397 4.96605 8.57848 5.01514 8.72059C5.06422 8.86271 5.15978 8.98412 5.28638 9.06522C5.41299 9.14632 5.56323 9.18236 5.71285 9.16753C5.86247 9.1527 6.00272 9.08786 6.11093 8.98349C6.11481 8.98702 6.11628 8.99329 6.11437 9.00599C6.06907 9.2131 6.09984 9.42958 6.20107 9.61585C6.30229 9.80212 6.4672 9.94572 6.66561 10.0204C6.7728 10.0617 6.88894 10.0742 7.00247 10.0567C7.11601 10.0392 7.22297 9.99223 7.31271 9.92051C7.36587 9.88309 7.37447 9.89883 7.367 9.94893C7.34422 10.1039 7.3732 10.436 7.83867 10.6244C7.954 10.681 8.08447 10.6988 8.21073 10.6753C8.337 10.6519 8.45234 10.5883 8.53966 10.4942C8.59959 10.4399 8.61592 10.4487 8.61901 10.533C8.62651 10.6981 8.68232 10.8574 8.77953 10.9911C8.87674 11.1248 9.01107 11.227 9.16584 11.285C9.32061 11.3431 9.48902 11.3544 9.65016 11.3175C9.8113 11.2807 9.95808 11.1974 10.0723 11.0779C10.1865 10.9584 10.2631 10.808 10.2926 10.6454C10.3221 10.4828 10.3032 10.315 10.2383 10.163C10.1733 10.011 10.0652 9.88147 9.92722 9.79039C9.78928 9.69932 9.62764 9.65075 9.46234 9.65071H9.46225Z"
        fill="white" />
    <path
        d="M10.1999 0.579102C4.67715 0.579102 0.200347 3.51651 0.200347 7.1195C0.200347 7.21267 0.199219 7.46975 0.199219 7.50238C0.199219 11.3251 4.1122 14.4207 10.1987 14.4207C16.3219 14.4207 20.1992 11.3258 20.1992 7.50309V7.1195C20.1991 3.51651 15.7222 0.579102 10.1999 0.579102ZM19.7484 6.39465C18.3075 6.71348 16.9008 7.17076 15.5479 7.76012C14.5991 6.93236 12.4071 5.02623 11.8135 4.58084C11.5834 4.38725 11.3215 4.23487 11.0395 4.1304C10.9166 4.09166 10.7885 4.07166 10.6597 4.07106C10.4956 4.07324 10.3328 4.10067 10.1771 4.15237C9.76023 4.32545 9.37606 4.56868 9.0413 4.87151L9.02225 4.88656C8.67778 5.16046 8.32172 5.44377 8.05234 5.5037C7.93448 5.53028 7.81404 5.54377 7.69321 5.54393C7.572 5.55403 7.44998 5.54005 7.33419 5.5028C7.21839 5.46554 7.11112 5.40575 7.01853 5.32685C7.00176 5.30535 7.01284 5.27073 7.05188 5.22095L7.05691 5.21418L7.89166 4.31499C8.54528 3.66132 9.16273 3.04414 10.5836 3.01153C10.6073 3.01085 10.6312 3.0104 10.6545 3.0104C11.2999 3.03673 11.9342 3.18696 12.5228 3.4529C13.3136 3.84822 14.1846 4.05709 15.0687 4.06346C16.0359 4.04677 16.9877 3.81915 17.8578 3.3965C18.8716 4.24908 19.5439 5.27592 19.7484 6.39465ZM10.2017 0.965324C13.133 0.965324 15.7561 1.80552 17.5195 3.12881C16.7501 3.48028 15.9165 3.66926 15.0707 3.68393C14.2433 3.67719 13.4284 3.48105 12.6885 3.11055C12.0488 2.81858 11.3579 2.65534 10.6551 2.63014C10.6284 2.63014 10.6014 2.63056 10.575 2.63115C9.72853 2.61876 8.9058 2.91084 8.25665 3.4542C7.86361 3.4748 7.47483 3.54577 7.09987 3.66537C6.8363 3.75328 6.56223 3.80579 6.28483 3.82152C6.1803 3.82152 5.99225 3.81195 5.97538 3.81122C4.97808 3.63566 3.99988 3.36495 3.05421 3.0028C4.81417 1.75214 7.3639 0.965324 10.2017 0.965324ZM2.7082 3.2639C3.92783 3.76274 5.40749 4.14796 5.87539 4.17827C6.00591 4.18685 6.14497 4.20161 6.2841 4.2019C6.59705 4.18672 6.90651 4.12922 7.20403 4.03097C7.38117 3.98132 7.5765 3.92715 7.78208 3.88792C7.72705 3.94164 7.67235 3.99623 7.61732 4.05137L6.7696 4.96844C6.70513 5.02559 6.65952 5.10095 6.63879 5.18457C6.61807 5.26819 6.6232 5.35614 6.65352 5.43678C6.70273 5.53877 6.78005 5.62459 6.87639 5.68412C7.15063 5.83911 7.46133 5.91793 7.77629 5.9124C7.89696 5.91325 8.01734 5.90065 8.13522 5.87484C8.49077 5.79524 8.86365 5.49813 9.2584 5.18414C9.58547 4.90176 9.95903 4.67824 10.3625 4.52354C10.4629 4.49685 10.5663 4.48268 10.6702 4.48134C10.6969 4.48113 10.7235 4.48273 10.7499 4.48612C11.0603 4.5371 11.3499 4.67526 11.5849 4.8845C12.281 5.40755 15.3604 8.10159 15.3907 8.12817C15.4519 8.18617 15.5 8.25652 15.5319 8.33454C15.5638 8.41257 15.5787 8.49649 15.5756 8.58072C15.57 8.66148 15.5446 8.73961 15.5017 8.80823C15.4587 8.87685 15.3996 8.93384 15.3294 8.97418C15.2097 9.0542 15.0694 9.09792 14.9254 9.10009C14.799 9.10021 14.6752 9.06435 14.5684 8.99671C14.5571 8.98742 13.5021 8.01984 13.1135 7.69467C13.0649 7.6433 13.0009 7.60913 12.9312 7.59733C12.9157 7.59703 12.9004 7.6003 12.8864 7.60689C12.8724 7.61349 12.8601 7.62322 12.8505 7.63533C12.7894 7.71059 12.8578 7.81495 12.9385 7.88333L14.171 9.12282C14.2629 9.21237 14.3228 9.32967 14.3415 9.45664C14.3447 9.56052 14.319 9.66325 14.2674 9.75344C14.2157 9.84363 14.1401 9.91775 14.0489 9.96757C13.9207 10.0579 13.7686 10.1081 13.6119 10.112C13.4867 10.112 13.3643 10.0749 13.2603 10.0053L13.0835 9.83117C12.7603 9.51323 12.4266 9.18434 12.1824 8.98065C12.1331 8.92984 12.0686 8.89637 11.9987 8.88526C11.9841 8.88501 11.9697 8.88784 11.9563 8.89356C11.9429 8.89928 11.9309 8.90777 11.9211 8.91846C11.8932 8.94941 11.8738 9.00497 11.9436 9.09727C11.9623 9.12206 11.9831 9.14526 12.0058 9.16661L12.9049 10.1769C12.9568 10.2357 12.9872 10.3104 12.9909 10.3888C12.9946 10.4672 12.9715 10.5445 12.9253 10.608L12.8935 10.6482C12.8671 10.6767 12.8391 10.7037 12.8097 10.7289C12.6824 10.8224 12.528 10.8713 12.3701 10.8682C12.3294 10.8684 12.2887 10.865 12.2486 10.8579C12.183 10.8528 12.1209 10.8266 12.0713 10.7832L12.0601 10.7719C12.0112 10.7211 11.5579 10.2582 11.1829 9.94511C11.1363 9.89564 11.0749 9.86278 11.0079 9.85157C10.9925 9.85143 10.9773 9.85458 10.9633 9.86082C10.9493 9.86706 10.9367 9.87624 10.9266 9.88773C10.8526 9.96902 10.964 10.0904 11.0112 10.135L11.7779 10.9812C11.7714 10.9999 11.7617 11.0174 11.7492 11.0328C11.7217 11.0708 11.6288 11.1639 11.3505 11.1988C11.3167 11.2031 11.2827 11.2052 11.2487 11.205C10.9847 11.188 10.728 11.1119 10.4975 10.9822C10.5797 10.8078 10.6164 10.6155 10.6044 10.4232C10.5924 10.2308 10.532 10.0446 10.4289 9.88187C10.3257 9.7191 10.183 9.58502 10.0142 9.49209C9.84536 9.39917 9.65578 9.35039 9.46305 9.3503C9.44959 9.3503 9.43522 9.35071 9.42174 9.35115C9.45457 9.13334 9.41571 8.91075 9.31102 8.71694C9.20632 8.52313 9.04146 8.36861 8.84129 8.27667C8.69072 8.20912 8.52788 8.17323 8.36287 8.17123C8.24301 8.17065 8.12408 8.19221 8.01205 8.23481C7.89549 8.00846 7.69408 7.83745 7.45184 7.75911C7.3199 7.71234 7.18109 7.68791 7.04112 7.68683C6.81155 7.68553 6.58752 7.75731 6.40145 7.89177C6.31687 7.7855 6.21079 7.69831 6.09016 7.63591C5.96953 7.5735 5.83708 7.53729 5.70148 7.52965C5.56588 7.52201 5.4302 7.54312 5.30332 7.59158C5.17645 7.64003 5.06124 7.71476 4.96526 7.81085C4.72641 7.6283 3.77921 7.02661 1.24379 6.45099C1.12268 6.42356 0.847785 6.34485 0.674646 6.29406C0.912495 5.15597 1.63568 4.11665 2.70825 3.2639H2.7082ZM7.41116 9.86375L7.38372 9.83923H7.35601C7.32753 9.84134 7.30042 9.85231 7.27848 9.87059C7.16954 9.95442 7.03688 10.0016 6.89949 10.0055C6.82708 10.0049 6.7554 9.99095 6.68805 9.96439C6.50198 9.89494 6.34744 9.76031 6.25315 9.58551C6.15886 9.41071 6.13122 9.20763 6.17537 9.014C6.1784 8.99991 6.17762 8.98528 6.1731 8.9716C6.16858 8.95792 6.1605 8.9457 6.14967 8.93619L6.10819 8.90231L6.0694 8.93928C5.95642 9.04898 5.80512 9.11031 5.64764 9.11022C5.53017 9.1107 5.41506 9.07726 5.31613 9.01392C5.21721 8.95057 5.13867 8.86002 5.08995 8.75313C5.04123 8.64623 5.02441 8.52755 5.0415 8.41133C5.0586 8.29511 5.10888 8.1863 5.1863 8.09795C5.26373 8.00961 5.36502 7.9455 5.47799 7.91332C5.59097 7.88114 5.71083 7.88226 5.82319 7.91654C5.93555 7.95083 6.03562 8.01682 6.11138 8.10659C6.18715 8.19636 6.23539 8.30609 6.25031 8.42261L6.27132 8.58648L6.36136 8.44777C6.4628 8.29035 6.61348 8.17094 6.78991 8.10816C6.96634 8.04539 7.15859 8.04277 7.33666 8.10073C7.45966 8.13935 7.56747 8.21553 7.64493 8.31858C7.72239 8.42163 7.76561 8.54636 7.76852 8.67525C7.77511 8.75472 7.83168 8.75862 7.84264 8.75862C7.85633 8.75766 7.86967 8.75388 7.88183 8.74751C7.89399 8.74115 7.9047 8.73234 7.91329 8.72164C7.97129 8.6611 8.04105 8.61305 8.11829 8.58044C8.19553 8.54783 8.27861 8.53135 8.36245 8.532C8.47861 8.53455 8.59308 8.5604 8.69907 8.60801C9.27358 8.85447 9.01305 9.58456 9.00999 9.59202C8.96043 9.713 8.9585 9.76646 9.00491 9.79728L9.02754 9.80794H9.04442C9.08272 9.80364 9.1202 9.79383 9.15571 9.77884C9.2536 9.74014 9.35702 9.7173 9.4621 9.71116H9.46239C9.56531 9.71119 9.66721 9.73149 9.76228 9.7709C9.85736 9.81031 9.94374 9.86806 10.0165 9.94085C10.0892 10.0136 10.1469 10.1001 10.1863 10.1951C10.2257 10.2902 10.2459 10.3922 10.2459 10.4951C10.2459 10.598 10.2256 10.6999 10.1861 10.795C10.1467 10.89 10.089 10.9764 10.0162 11.0492C9.9434 11.1219 9.85699 11.1796 9.7619 11.219C9.66681 11.2583 9.56489 11.2786 9.46197 11.2786C9.2601 11.2798 9.06565 11.2025 8.91974 11.0629C8.77384 10.9234 8.6879 10.7326 8.68009 10.5309C8.67894 10.495 8.67519 10.3996 8.59427 10.3996C8.55748 10.4039 8.52361 10.4218 8.49932 10.4497C8.39931 10.5562 8.26111 10.6186 8.11511 10.6232C8.02794 10.6214 7.94194 10.6027 7.86187 10.5683C7.41559 10.3871 7.40946 10.0807 7.42749 9.95742C7.43188 9.94157 7.43269 9.92495 7.42986 9.90875C7.42704 9.89255 7.42065 9.87718 7.41116 9.86375ZM10.2016 13.2672C4.89133 13.2672 0.586642 10.5132 0.586642 7.11626C0.587467 6.98047 0.595201 6.84481 0.609814 6.70981C0.65221 6.71993 1.07394 6.82076 1.16128 6.8404C3.75125 7.41575 4.60709 8.01391 4.75171 8.12702C4.69022 8.27448 4.66608 8.43485 4.68146 8.59388C4.69683 8.75291 4.75123 8.90568 4.83984 9.03864C4.92844 9.17159 5.0485 9.28061 5.18937 9.35601C5.33023 9.43141 5.48753 9.47086 5.6473 9.47086C5.70701 9.47097 5.76659 9.46546 5.82527 9.45441C5.86352 9.64674 5.95112 9.82583 6.07947 9.97409C6.20782 10.1224 6.37251 10.2347 6.55738 10.3001C6.66755 10.3434 6.78475 10.366 6.90312 10.3668C6.97762 10.3672 7.05186 10.3581 7.12402 10.3395C7.21296 10.5267 7.35186 10.6857 7.52541 10.799C7.69896 10.9123 7.90042 10.9755 8.10759 10.9815C8.20867 10.9815 8.30895 10.9636 8.40379 10.9287C8.47562 11.1044 8.59012 11.2595 8.73694 11.3798C8.88376 11.5002 9.05828 11.5821 9.2447 11.6181C9.43112 11.654 9.62356 11.643 9.80463 11.5859C9.9857 11.5288 10.1497 11.4274 10.2817 11.291C10.5771 11.4631 10.9093 11.5623 11.2507 11.5804C11.2997 11.5802 11.3487 11.5771 11.3973 11.5711C11.5234 11.5673 11.6472 11.5366 11.7604 11.4812C11.8737 11.4258 11.9739 11.3468 12.0542 11.2497C12.0694 11.2288 12.083 11.2068 12.0948 11.1838C12.1954 11.2145 12.2999 11.2308 12.4051 11.2324C12.6325 11.2278 12.8523 11.1492 13.0311 11.0085C13.2198 10.8846 13.3525 10.6917 13.4005 10.4711C13.4009 10.4686 13.4012 10.4662 13.4014 10.4637C13.4703 10.4777 13.5405 10.4848 13.6109 10.4848C13.8408 10.4819 14.0646 10.411 14.2541 10.2808C14.3982 10.1973 14.5172 10.0764 14.5984 9.9309C14.6796 9.78543 14.7201 9.62075 14.7156 9.45421C14.7854 9.46875 14.8566 9.47614 14.928 9.47628C15.1424 9.47396 15.3516 9.40956 15.5303 9.29086C15.649 9.21832 15.7489 9.11874 15.8218 9.00024C15.8946 8.88174 15.9384 8.74768 15.9496 8.60902C15.9638 8.41605 15.9173 8.22347 15.8165 8.05829C17.1084 7.53097 18.4424 7.11322 19.8043 6.80946C19.8121 6.91119 19.8164 7.01349 19.8164 7.11646C19.8164 10.5132 15.5118 13.2672 10.2017 13.2672L10.2016 13.2672Z"
        fill="black" fill-opacity="0.55" />
</svg>
