<svg viewBox="0 0 17 16" fill="none" xmlns="http://www.w3.org/2000/svg">
    <path
        d="M6.31119 7.11086L7.88534 8.624L11.076 5.04176L11.9721 5.83989L7.95238 10.3529L5.47959 7.97599L6.31119 7.11086Z"
        fill="black" fill-opacity="0.9" />
    <path fill-rule="evenodd" clip-rule="evenodd"
        d="M2.12695 3.89024C2.12695 9.52302 4.29173 13.1325 8.60021 14.5687L8.78995 14.6319L8.97969 14.5687C13.2882 13.1325 15.4529 9.52302 15.4529 3.89024V3.29024H14.8529C12.9828 3.29024 11.0927 2.507 9.17281 0.915925L8.78995 0.598633L8.40709 0.915925C6.48723 2.507 4.59706 3.29024 2.72695 3.29024H2.12695V3.89024ZM8.78995 2.1475C10.5893 3.54798 12.4096 4.32609 14.2449 4.46692C14.1104 9.1917 12.298 12.1155 8.78995 13.3648C5.28185 12.1155 3.46948 9.1917 3.33503 4.46692C5.17031 4.32609 6.99056 3.54798 8.78995 2.1475Z"
        fill="black" fill-opacity="0.9" />
</svg>
