<svg width="108" height="27" viewBox="0 0 108 27" fill="none" xmlns="http://www.w3.org/2000/svg">
<path d="M19.8226 0.599609C9.24005 0.599609 0.662109 6.04354 0.662109 12.7596C0.662109 19.4757 9.24005 25.4469 19.8226 25.4469C30.4051 25.4469 38.9827 19.4752 38.9827 12.7596C38.9827 6.04401 30.4046 0.599609 19.8226 0.599609Z" fill="#00BCFF"/>
<path d="M13.5884 8.99998C13.5788 9.01851 13.3916 9.21065 13.513 9.36512C13.8091 9.74065 14.7244 9.95592 15.6499 9.74987C16.2009 9.62722 16.9072 9.06967 17.5914 8.53121C18.2446 7.94265 18.994 7.46865 19.8074 7.12948C20.3271 6.9407 20.8948 6.92597 21.4237 7.08754C21.9607 7.28547 22.4592 7.57402 22.8971 7.94045C24.1816 8.89862 29.3468 13.3715 30.2395 14.1444C32.9821 13.0129 35.8215 12.128 38.7235 11.5004C38.3461 9.20457 36.9542 7.01591 34.8187 5.29608C31.8422 6.53625 27.9623 7.27882 24.4057 5.556C23.1973 5.01329 21.8907 4.71854 20.5645 4.68945C17.7428 4.75458 16.5204 5.96587 15.2269 7.24828L13.5884 8.99998Z" fill="white"/>
<path d="M30.0297 14.6323C29.9688 14.5784 23.9564 9.35903 22.594 8.34333C22.1194 7.92447 21.534 7.64877 20.9069 7.54866C20.6369 7.52733 20.3652 7.55325 20.1042 7.62523C19.2998 7.92578 18.5556 8.36572 17.9063 8.92454C17.145 9.52651 16.4268 10.093 15.7599 10.2413C14.9542 10.4055 14.1158 10.2805 13.3943 9.8887C13.2253 9.78616 13.0892 9.63816 13.0016 9.46191C12.9534 9.32687 12.9468 9.18065 12.9826 9.04186C13.0184 8.90307 13.0951 8.77799 13.2027 8.68253L14.8622 6.90199C15.0553 6.71123 15.2492 6.5199 15.4486 6.33199C14.9368 6.40831 14.4313 6.52124 13.9359 6.66991C13.3655 6.85788 12.7719 6.96772 12.1715 6.99638C11.5664 6.93562 10.9652 6.84238 10.3703 6.71708C8.59659 6.30418 6.86518 5.72937 5.19822 5C2.83917 6.74216 1.30303 8.88118 0.847168 11.2804C1.18611 11.3692 2.07428 11.5701 2.30382 11.6206C7.64244 12.7981 9.30493 14.011 9.60657 14.2644C9.78398 14.0664 10.0043 13.9107 10.2511 13.8093C10.4979 13.7079 10.7646 13.6633 11.0312 13.6789C11.2979 13.6945 11.5575 13.7698 11.7905 13.8993C12.0236 14.0287 12.224 14.2089 12.3768 14.4263C12.7368 14.1376 13.1862 13.9807 13.6491 13.9822C13.9092 13.9846 14.1672 14.0295 14.4126 14.1149C14.6505 14.1903 14.8694 14.3153 15.0548 14.4814C15.2401 14.6475 15.3875 14.851 15.4872 15.0782C15.7205 14.9733 15.9739 14.9198 16.23 14.9214C16.5363 14.9253 16.8385 14.9914 17.118 15.1157C17.5067 15.2965 17.822 15.6028 18.0124 15.9844C18.2028 16.3661 18.2569 16.8006 18.1659 17.2168C18.2366 17.2092 18.3075 17.2055 18.3786 17.2056C18.9397 17.2065 19.4775 17.4281 19.8742 17.8218C20.2709 18.2155 20.494 18.7492 20.4946 19.3058C20.4946 19.652 20.4076 19.9928 20.2414 20.2972C20.7939 20.6322 21.4322 20.8018 22.0796 20.7855C22.241 20.7856 22.4007 20.7526 22.5486 20.6886C22.6966 20.6246 22.8296 20.5309 22.9394 20.4136C22.9926 20.3392 23.0481 20.2521 22.9965 20.1893L21.4901 18.5297C21.4901 18.5297 21.2423 18.297 21.3242 18.2073C21.4088 18.1149 21.5621 18.2474 21.6709 18.3373C22.4372 18.9723 23.3728 19.9309 23.3728 19.9309C23.3893 19.9413 23.4508 20.0628 23.7969 20.1244C24.0038 20.1601 24.2159 20.1542 24.4204 20.1068C24.6249 20.0595 24.8178 19.9718 24.9874 19.8489C25.0835 19.7691 25.1713 19.68 25.2495 19.5829C25.2442 19.5881 25.2383 19.5927 25.2319 19.5965C25.3375 19.4517 25.3907 19.2758 25.3829 19.0972C25.375 18.9187 25.3067 18.748 25.1888 18.6128L23.4303 16.6537C23.4303 16.6537 23.1787 16.4227 23.265 16.3307C23.3413 16.2499 23.5028 16.3716 23.6132 16.4623C24.1698 16.9243 24.9565 17.7068 25.7104 18.4402C25.9617 18.6089 26.2605 18.6941 26.5637 18.6837C26.867 18.6732 27.1591 18.5677 27.3981 18.3822C27.5938 18.275 27.7558 18.1161 27.8659 17.9231C27.9761 17.7301 28.0302 17.5105 28.0222 17.2889C27.9842 17.0117 27.8534 16.7553 27.6508 16.5607L25.2495 14.1646C25.2495 14.1646 24.9952 13.9495 25.0852 13.8411C25.1589 13.7495 25.3226 13.8811 25.4313 13.9708C26.196 14.606 28.2672 16.4904 28.2672 16.4904C28.5113 16.6467 28.7968 16.7271 29.0872 16.7213C29.3776 16.7156 29.6596 16.624 29.8972 16.4582C30.0498 16.3697 30.1783 16.2455 30.2715 16.0965C30.3648 15.9475 30.42 15.7782 30.4323 15.6032C30.4394 15.4222 30.4071 15.2418 30.3376 15.0743C30.2682 14.9067 30.1632 14.756 30.0297 14.6323Z" fill="white"/>
<path d="M18.3782 17.6677C18.0961 17.707 17.8175 17.7682 17.5451 17.8508C17.5154 17.8318 17.5679 17.6832 17.6026 17.5977C17.6388 17.5129 18.1292 16.0484 16.9334 15.5402C16.6658 15.3978 16.359 15.3449 16.0587 15.3893C15.7583 15.4337 15.4804 15.5731 15.2664 15.7868C15.2163 15.8386 15.1936 15.8343 15.188 15.7689C15.1809 15.4955 15.0877 15.2311 14.9214 15.0129C14.7551 14.7948 14.5242 14.6337 14.261 14.5524C13.8882 14.4386 13.4883 14.4473 13.1209 14.5772C12.7535 14.7071 12.4383 14.9513 12.2221 15.2734C12.1836 14.9847 12.0481 14.7173 11.8375 14.5144C11.6269 14.3115 11.3534 14.1849 11.0614 14.1552C10.7693 14.1255 10.4757 14.1943 10.228 14.3506C9.98022 14.5068 9.79281 14.7414 9.69602 15.0164C9.59923 15.2913 9.59871 15.5906 9.69455 15.8659C9.79039 16.1412 9.977 16.3764 10.2242 16.5335C10.4714 16.6906 10.7648 16.7605 11.057 16.7317C11.3491 16.703 11.623 16.5774 11.8343 16.3752C11.8418 16.382 11.8447 16.3942 11.841 16.4188C11.7525 16.82 11.8126 17.2394 12.0103 17.6002C12.2079 17.961 12.5299 18.2392 12.9174 18.3838C13.1267 18.4639 13.3534 18.4882 13.5751 18.4542C13.7968 18.4203 14.0057 18.3293 14.1809 18.1904C14.2847 18.1179 14.3015 18.1484 14.2869 18.2454C14.2424 18.5457 14.299 19.1889 15.2079 19.554C15.4331 19.6635 15.6879 19.698 15.9344 19.6526C16.181 19.6071 16.4062 19.4841 16.5767 19.3016C16.6938 19.1965 16.7256 19.2136 16.7317 19.3769C16.7463 19.6967 16.8553 20.0053 17.0451 20.2643C17.2349 20.5232 17.4972 20.7212 17.7994 20.8336C18.1017 20.9461 18.4305 20.968 18.7451 20.8966C19.0598 20.8253 19.3464 20.6639 19.5694 20.4324C19.7925 20.201 19.942 19.9096 19.9997 19.5946C20.0573 19.2795 20.0204 18.9546 19.8935 18.6602C19.7667 18.3657 19.5555 18.1147 19.2862 17.9383C19.0168 17.7619 18.7012 17.6678 18.3784 17.6677H18.3782Z" fill="white"/>
<path d="M19.8195 0.0957031C9.03535 0.0957031 0.293706 5.78592 0.293706 12.7655C0.293706 12.946 0.291504 13.444 0.291504 13.5072C0.291504 20.9124 7.93219 26.9091 19.817 26.9091C31.7736 26.9091 39.3446 20.9137 39.3446 13.5086V12.7655C39.3443 5.78592 30.6026 0.0957031 19.8195 0.0957031ZM38.4642 11.3613C35.6507 11.9789 32.9039 12.8648 30.2621 14.0065C28.4096 12.403 24.1293 8.71049 22.9702 7.8477C22.5208 7.47269 22.0095 7.17749 21.4588 6.97513C21.2188 6.90008 20.9688 6.86133 20.7171 6.86018C20.3968 6.8644 20.079 6.91752 19.7749 7.01769C18.9609 7.35297 18.2107 7.82415 17.557 8.41077L17.5198 8.43993C16.8472 8.97051 16.1519 9.51932 15.6259 9.63541C15.3958 9.6869 15.1606 9.71304 14.9247 9.71336C14.688 9.73293 14.4497 9.70585 14.2236 9.63368C13.9975 9.5615 13.7881 9.44567 13.6073 9.29284C13.5745 9.25119 13.5962 9.18412 13.6724 9.08769L13.6822 9.07458L15.3122 7.33271C16.5885 6.06645 17.7941 4.87088 20.5687 4.8077C20.6149 4.80637 20.6615 4.80552 20.7071 4.80552C21.9673 4.85652 23.2058 5.14754 24.3552 5.6627C25.8995 6.42851 27.6001 6.83311 29.3265 6.84545C31.215 6.81311 33.0736 6.37218 34.7726 5.55345C36.7521 7.20503 38.065 9.19419 38.4642 11.3613ZM19.8228 0.843876C25.5467 0.843876 30.6686 2.47146 34.1121 5.0349C32.6097 5.71574 30.9818 6.08181 29.3303 6.11025C27.7147 6.09719 26.1235 5.71723 24.6788 4.99951C23.4296 4.43392 22.0805 4.11771 20.7083 4.06889C20.6562 4.06889 20.6034 4.0697 20.5518 4.07084C18.899 4.04684 17.2924 4.61265 16.0249 5.66522C15.2574 5.70512 14.4983 5.8426 13.7661 6.07429C13.2514 6.24458 12.7163 6.3463 12.1746 6.37677C11.9705 6.37677 11.6033 6.35825 11.5704 6.35682C9.62296 6.01674 7.71288 5.49233 5.86632 4.79079C9.3029 2.36806 14.2817 0.843876 19.8228 0.843876ZM5.19068 5.29657C7.57218 6.26291 10.4615 7.00914 11.3751 7.06785C11.63 7.08447 11.9015 7.11307 12.1732 7.11364C12.7843 7.08423 13.3885 6.97284 13.9695 6.78252C14.3154 6.68633 14.6968 6.5814 15.0982 6.5054C14.9908 6.60947 14.8839 6.71521 14.7765 6.82204L13.1212 8.59854C12.9953 8.70924 12.9062 8.85523 12.8658 9.01722C12.8253 9.17921 12.8353 9.34957 12.8945 9.50578C12.9906 9.70337 13.1416 9.8696 13.3297 9.98492C13.8652 10.2852 14.4719 10.4379 15.0869 10.4271C15.3225 10.4288 15.5576 10.4044 15.7878 10.3544C16.482 10.2002 17.2101 9.62463 17.981 9.01639C18.6196 8.46937 19.349 8.03638 20.1369 7.7367C20.333 7.685 20.5349 7.65754 20.7378 7.65495C20.7898 7.65455 20.8417 7.65764 20.8933 7.66421C21.4995 7.76296 22.065 8.0306 22.5238 8.43594C23.883 9.44917 29.896 14.6679 29.9553 14.7194C30.0747 14.8318 30.1687 14.9681 30.2309 15.1192C30.2931 15.2704 30.3222 15.4329 30.3162 15.5961C30.3053 15.7525 30.2558 15.9039 30.1719 16.0368C30.0881 16.1697 29.9725 16.2801 29.8355 16.3583C29.6017 16.5133 29.3278 16.598 29.0467 16.6022C28.7998 16.6024 28.558 16.533 28.3495 16.4019C28.3275 16.3839 26.2674 14.5096 25.5086 13.8797C25.4137 13.7802 25.2888 13.714 25.1527 13.6911C25.1225 13.6905 25.0925 13.6969 25.0652 13.7096C25.0378 13.7224 25.0138 13.7413 24.995 13.7647C24.8757 13.9105 25.0094 14.1127 25.1669 14.2451L27.5735 16.6462C27.753 16.8197 27.87 17.0469 27.9064 17.2929C27.9127 17.4941 27.8626 17.6931 27.7617 17.8678C27.6608 18.0425 27.5132 18.1861 27.3351 18.2826C27.0848 18.4576 26.7879 18.555 26.4819 18.5625C26.2374 18.5625 25.9984 18.4905 25.7952 18.3557L25.4501 18.0184C24.8189 17.4025 24.1673 16.7654 23.6906 16.3708C23.5942 16.2724 23.4684 16.2076 23.3318 16.186C23.3034 16.1856 23.2752 16.191 23.2491 16.2021C23.2229 16.2132 23.1995 16.2296 23.1802 16.2504C23.1258 16.3103 23.0878 16.4179 23.2242 16.5967C23.2608 16.6448 23.3014 16.6897 23.3456 16.7311L25.1013 18.6881C25.2027 18.802 25.262 18.9468 25.2692 19.0987C25.2765 19.2505 25.2313 19.4003 25.1412 19.5232L25.079 19.6011C25.0276 19.6564 24.9729 19.7086 24.9153 19.7575C24.6669 19.9385 24.3653 20.0333 24.0571 20.0273C23.9775 20.0277 23.8981 20.021 23.8198 20.0074C23.6917 19.9974 23.5703 19.9466 23.4737 19.8627L23.4517 19.8407C23.3562 19.7423 22.4711 18.8457 21.7388 18.2391C21.6479 18.1433 21.5279 18.0796 21.3971 18.0579C21.3671 18.0577 21.3374 18.0638 21.31 18.0759C21.2826 18.0879 21.2582 18.1057 21.2383 18.128C21.0938 18.2854 21.3114 18.5206 21.4036 18.607L22.9006 20.2462C22.8879 20.2824 22.869 20.3162 22.8447 20.3461C22.7909 20.4198 22.6095 20.6001 22.0661 20.6677C22.0002 20.6761 21.9338 20.6801 21.8673 20.6797C21.3519 20.6469 20.8506 20.4993 20.4005 20.2481C20.5609 19.9103 20.6327 19.5379 20.6093 19.1653C20.5859 18.7927 20.4679 18.4319 20.2664 18.1166C20.065 17.8013 19.7864 17.5416 19.4568 17.3616C19.1271 17.1816 18.7569 17.0871 18.3806 17.0869C18.3543 17.0869 18.3262 17.0877 18.2999 17.0885C18.364 16.6666 18.2881 16.2354 18.0837 15.86C17.8793 15.4845 17.5573 15.1852 17.1665 15.0071C16.8725 14.8762 16.5545 14.8067 16.2323 14.8028C15.9983 14.8017 15.766 14.8435 15.5473 14.926C15.3197 14.4875 14.9264 14.1563 14.4534 14.0045C14.1957 13.9139 13.9247 13.8666 13.6514 13.8645C13.2031 13.862 12.7657 14.001 12.4023 14.2615C12.2372 14.0556 12.03 13.8867 11.7945 13.7658C11.5589 13.645 11.3003 13.5748 11.0355 13.56C10.7707 13.5452 10.5058 13.5861 10.258 13.68C10.0103 13.7738 9.78536 13.9186 9.59794 14.1047C9.13154 13.7511 7.28198 12.5855 2.33119 11.4705C2.09471 11.4173 1.55793 11.2649 1.21985 11.1665C1.68429 8.96182 3.09641 6.94848 5.19078 5.29657H5.19068ZM14.3739 18.0815L14.3203 18.034H14.2662C14.2106 18.0381 14.1577 18.0594 14.1148 18.0948C13.9021 18.2572 13.6431 18.3486 13.3748 18.356C13.2334 18.3549 13.0935 18.3279 12.9619 18.2765C12.5986 18.1419 12.2969 17.8811 12.1127 17.5425C11.9286 17.2039 11.8747 16.8105 11.9609 16.4354C11.9668 16.4081 11.9652 16.3798 11.9564 16.3533C11.9476 16.3268 11.9318 16.3031 11.9107 16.2847L11.8297 16.2191L11.7539 16.2907C11.5333 16.5032 11.2379 16.622 10.9304 16.6218C10.701 16.6227 10.4762 16.558 10.2831 16.4353C10.0899 16.3126 9.93654 16.1371 9.84141 15.9301C9.74629 15.723 9.71344 15.4931 9.74681 15.268C9.78019 15.0428 9.87837 14.832 10.0296 14.6609C10.1807 14.4898 10.3785 14.3656 10.5991 14.3032C10.8197 14.2409 11.0538 14.2431 11.2732 14.3095C11.4926 14.3759 11.688 14.5037 11.8359 14.6776C11.9839 14.8515 12.0781 15.0641 12.1072 15.2898L12.1482 15.6073L12.324 15.3385C12.5221 15.0336 12.8163 14.8023 13.1609 14.6807C13.5054 14.5591 13.8808 14.554 14.2285 14.6663C14.4686 14.7411 14.6791 14.8887 14.8304 15.0883C14.9817 15.2879 15.066 15.5295 15.0717 15.7792C15.0846 15.9332 15.1951 15.9407 15.2165 15.9407C15.2432 15.9388 15.2692 15.9315 15.293 15.9192C15.3167 15.9069 15.3376 15.8898 15.3544 15.8691C15.4677 15.7518 15.6039 15.6587 15.7547 15.5956C15.9055 15.5324 16.0678 15.5005 16.2315 15.5017C16.4583 15.5067 16.6818 15.5567 16.8888 15.649C18.0106 16.1264 17.5019 17.5407 17.4959 17.5551C17.3991 17.7895 17.3953 17.8931 17.486 17.9528L17.5302 17.9734H17.5631C17.6379 17.9651 17.7111 17.9461 17.7804 17.917C17.9716 17.8421 18.1735 17.7978 18.3787 17.7859H18.3793C18.5802 17.786 18.7792 17.8253 18.9649 17.9017C19.1505 17.978 19.3192 18.0899 19.4612 18.2309C19.6033 18.3719 19.716 18.5393 19.7928 18.7235C19.8697 18.9077 19.9092 19.1051 19.9092 19.3045C19.9091 19.5039 19.8695 19.7013 19.7925 19.8854C19.7156 20.0696 19.6028 20.2369 19.4607 20.3779C19.3185 20.5188 19.1498 20.6306 18.9641 20.7068C18.7784 20.7831 18.5794 20.8223 18.3785 20.8222C17.9843 20.8246 17.6046 20.6748 17.3197 20.4045C17.0348 20.1342 16.867 19.7646 16.8517 19.3739C16.8495 19.3044 16.8421 19.1196 16.6841 19.1196C16.6123 19.1279 16.5462 19.1625 16.4987 19.2166C16.3034 19.4229 16.0336 19.5437 15.7485 19.5527C15.5783 19.5492 15.4104 19.5131 15.254 19.4463C14.3826 19.0953 14.3706 18.5017 14.4058 18.263C14.4144 18.2323 14.416 18.2001 14.4105 18.1687C14.4049 18.1373 14.3925 18.1075 14.3739 18.0815ZM19.8227 24.6745C9.45358 24.6746 1.04801 19.3397 1.04801 12.7592C1.04962 12.4962 1.06472 12.2334 1.09325 11.9718C1.17604 11.9915 1.99953 12.1868 2.17008 12.2248C7.2274 13.3394 8.89856 14.4981 9.18095 14.7172C9.06087 15.0029 9.01374 15.3135 9.04376 15.6216C9.07378 15.9297 9.18001 16.2256 9.35303 16.4832C9.52604 16.7407 9.76048 16.9519 10.0355 17.0979C10.3106 17.244 10.6177 17.3204 10.9297 17.3204C11.0463 17.3206 11.1627 17.31 11.2772 17.2886C11.3519 17.6611 11.523 18.0081 11.7736 18.2953C12.0242 18.5825 12.3458 18.8001 12.7068 18.9268C12.9219 19.0106 13.1508 19.0544 13.3819 19.056C13.5274 19.0569 13.6724 19.0391 13.8132 19.0032C13.9869 19.3658 14.2581 19.6738 14.597 19.8933C14.9359 20.1127 15.3293 20.2351 15.7338 20.2469C15.9312 20.2469 16.127 20.2122 16.3122 20.1444C16.4524 20.4849 16.676 20.7853 16.9627 21.0184C17.2494 21.2516 17.5902 21.4102 17.9542 21.4799C18.3182 21.5496 18.694 21.5282 19.0476 21.4176C19.4011 21.3069 19.7213 21.1106 19.9792 20.8464C20.556 21.1798 21.2046 21.372 21.8713 21.4069C21.967 21.4066 22.0626 21.4006 22.1575 21.389C22.4037 21.3815 22.6454 21.3221 22.8665 21.2148C23.0877 21.1074 23.2833 20.9545 23.4402 20.7663C23.4699 20.7258 23.4964 20.6832 23.5195 20.6387C23.716 20.6982 23.9199 20.7298 24.1254 20.7327C24.5695 20.7239 24.9986 20.5717 25.3477 20.2992C25.7163 20.0592 25.9752 19.6853 26.069 19.258C26.0699 19.2532 26.0704 19.2485 26.0707 19.2437C26.2054 19.2709 26.3425 19.2846 26.4799 19.2846C26.9288 19.2791 27.3658 19.1416 27.7358 18.8895C28.0173 18.7276 28.2495 18.4934 28.4081 18.2116C28.5666 17.9298 28.6457 17.6108 28.6369 17.2882C28.7733 17.3163 28.9123 17.3307 29.0516 17.3309C29.4704 17.3264 29.879 17.2017 30.2278 16.9717C30.4596 16.8312 30.6546 16.6383 30.7969 16.4088C30.9392 16.1792 31.0247 15.9195 31.0466 15.6509C31.0743 15.2771 30.9835 14.904 30.7867 14.5841C33.3093 13.5626 35.9141 12.7533 38.5734 12.1649C38.5887 12.362 38.5971 12.5601 38.5971 12.7596C38.5971 19.3397 30.1917 24.6746 19.8228 24.6746L19.8227 24.6745Z" fill="#0A0080"/>
<path d="M106.285 3.99599C105.576 3.1143 104.5 2.67357 103.056 2.67383C101.613 2.67383 100.537 3.11455 99.8273 3.99599C99.1158 4.8822 98.7392 5.98745 98.7628 7.12021C98.7338 8.25768 99.1109 9.36874 99.8273 10.2573C100.536 11.1245 101.613 11.5585 103.056 11.5593C104.501 11.5593 105.577 11.1253 106.285 10.2573C107.002 9.36866 107.378 8.25759 107.349 7.12021C107.373 5.98754 106.997 4.88227 106.285 3.99599ZM104.529 9.05241C104.346 9.26557 104.119 9.43679 103.863 9.55422C103.607 9.67164 103.329 9.73247 103.047 9.73247C102.765 9.73247 102.486 9.67164 102.231 9.55422C101.975 9.43679 101.748 9.26557 101.565 9.05241C101.184 8.48168 101.002 7.80321 101.046 7.12021C101.002 6.43844 101.184 5.76118 101.565 5.19199C101.748 4.97995 101.976 4.80975 102.231 4.69306C102.487 4.57636 102.765 4.51594 103.047 4.51594C103.329 4.51594 103.607 4.57636 103.863 4.69306C104.118 4.80975 104.346 4.97995 104.529 5.19199C104.907 5.76225 105.088 6.43897 105.045 7.12021C105.088 7.80268 104.907 8.48061 104.529 9.05241Z" fill="#0A0080"/>
<path d="M88.1638 3.25713C87.3964 2.88423 86.5504 2.69799 85.696 2.71382C84.2717 2.71382 83.2671 3.08168 82.6822 3.81739C82.2954 4.34221 82.0784 4.97112 82.0597 5.62096H84.1873C84.2206 5.34187 84.3289 5.07678 84.5008 4.85341C84.6479 4.7123 84.8244 4.60485 85.0178 4.53861C85.2112 4.47237 85.4169 4.44895 85.6205 4.46999C85.9882 4.449 86.3556 4.51629 86.6915 4.66617C86.8144 4.73723 86.914 4.84185 86.9785 4.96755C87.043 5.09325 87.0697 5.23471 87.0554 5.37506C87.0534 5.5153 87.0062 5.65124 86.9208 5.76301C86.8354 5.87478 86.7162 5.95654 86.5806 5.99636C86.2964 6.09801 86.0001 6.16258 85.6992 6.18845L84.9449 6.28007C84.2675 6.33578 83.6069 6.51823 82.998 6.81777C82.6054 7.03932 82.2838 7.36634 82.0702 7.76121C81.8566 8.15607 81.7598 8.60274 81.7908 9.0498C81.7701 9.39203 81.8267 9.73453 81.9565 10.0523C82.0863 10.37 82.286 10.655 82.5411 10.8864C83.0798 11.315 83.7521 11.5443 84.4426 11.535C89.2526 11.7487 89.1983 9.02087 89.2421 8.45344V5.31397C89.2422 4.30684 88.8827 3.62123 88.1638 3.25713ZM87.0466 8.0218C87.0731 8.30559 87.0294 8.59151 86.9195 8.8548C86.8095 9.11809 86.6365 9.35083 86.4155 9.53287C86.0262 9.80419 85.5617 9.94908 85.086 9.9476C84.8065 9.9552 84.5329 9.8669 84.3114 9.6976C84.1986 9.59636 84.1112 9.47041 84.0561 9.32978C84.0009 9.18914 83.9796 9.03768 83.9938 8.88744C83.984 8.69999 84.0276 8.51358 84.1196 8.34955C84.2116 8.18552 84.3482 8.05049 84.5139 7.95991C84.8332 7.80672 85.1756 7.70626 85.5275 7.66251L86.0298 7.57008C86.2306 7.53545 86.4281 7.48462 86.6205 7.41808C86.7699 7.36399 86.9128 7.29364 87.0466 7.20832V8.0218Z" fill="#0A0080"/>
<path d="M77.1955 4.58454C77.424 4.56644 77.6536 4.6029 77.865 4.69086C78.0765 4.77882 78.2636 4.91572 78.4108 5.09013C78.5895 5.33946 78.704 5.62835 78.7445 5.93164H81.1167C80.9872 4.7437 80.5685 3.91503 79.8609 3.44563C79.0417 2.94747 78.0915 2.70258 77.1315 2.74216C76.5628 2.71149 75.9942 2.80209 75.4638 3.00784C74.9334 3.21359 74.4537 3.52972 74.0568 3.93493C73.2664 4.86399 72.8672 6.05942 72.942 7.2729C72.8924 8.39089 73.2505 9.48919 73.9507 10.3666C74.6232 11.1614 75.6721 11.559 77.0974 11.5593C77.7125 11.5993 78.3281 11.4898 78.891 11.2405C79.4538 10.9912 79.9469 10.6096 80.3276 10.1286C80.7625 9.58949 81.0281 8.9355 81.0916 8.24788H78.7275C78.6986 8.63789 78.554 9.01069 78.3119 9.31929C78.1624 9.46929 77.981 9.58419 77.781 9.65553C77.5809 9.72688 77.3673 9.75287 77.1558 9.73159C76.8159 9.75343 76.4783 9.66321 76.1955 9.47497C75.9127 9.28673 75.7006 9.01103 75.5921 8.69077C75.4226 8.21899 75.3448 7.71961 75.3628 7.21908C75.3448 6.69575 75.4225 6.1735 75.5922 5.67766C75.7003 5.34542 75.9162 5.05803 76.2062 4.86029C76.4962 4.66256 76.8441 4.5656 77.1955 4.58454Z" fill="#0A0080"/>
<path d="M72.3067 2.74219C67.4325 2.74219 67.721 7.02298 67.721 7.02298V11.3715H69.9331V7.29321C69.9036 6.78545 69.9904 6.27766 70.1868 5.80789C70.4907 5.23728 71.0845 4.9517 71.9684 4.95113C72.0349 4.95113 72.1224 4.95512 72.2301 4.95996C72.3378 4.96557 72.4602 4.97421 72.6012 4.99127V2.75929C72.5032 2.75202 72.4391 2.74979 72.4116 2.74641C72.3828 2.74399 72.348 2.74219 72.3067 2.74219Z" fill="#0A0080"/>
<path d="M65.9482 4.36416C65.5914 3.82479 65.0877 3.39695 64.4955 3.1304C63.8725 2.86377 63.1995 2.73119 62.5211 2.74137C61.9673 2.71982 61.4149 2.81112 60.8981 3.00965C60.3812 3.20817 59.9109 3.50971 59.5161 3.89562C58.7448 4.66721 58.3586 5.77452 58.3574 7.21754C58.3574 8.7591 58.7852 9.8715 59.6406 10.5547C60.4746 11.2313 61.5223 11.5947 62.5996 11.5811C63.1835 11.6149 63.768 11.5237 64.3133 11.3137C64.8586 11.1038 65.352 10.78 65.7601 10.3642C66.1204 10.0142 66.3847 9.57874 66.5281 9.09911H64.182C64.0978 9.22352 63.996 9.33532 63.8798 9.43108C63.5193 9.68133 63.0821 9.799 62.6435 9.76382C62.2319 9.78721 61.8225 9.68995 61.4663 9.48414C61.1776 9.2957 60.9433 9.03609 60.7862 8.73075C60.6291 8.42542 60.5547 8.08483 60.5702 7.74236H66.6904C66.7078 7.18968 66.6832 6.63647 66.6166 6.08746C66.5285 5.47015 66.2999 4.88082 65.9482 4.36416ZM60.6244 6.30364C60.6757 5.82271 60.8806 5.37066 61.2094 5.01358C61.3833 4.84901 61.5896 4.72181 61.8153 4.63994C62.0411 4.55807 62.2814 4.52329 62.5213 4.53778C62.997 4.52258 63.4615 4.68296 63.8249 4.98789C64.0073 5.15631 64.1532 5.35984 64.2536 5.58607C64.3541 5.81229 64.407 6.05645 64.4091 6.30364H60.6244Z" fill="#0A0080"/>
<path d="M53.9628 2.7139C53.4835 2.70975 53.0094 2.81188 52.575 3.01282C52.1406 3.21376 51.7569 3.50844 51.4521 3.87532C51.1522 3.50227 50.7693 3.20324 50.3334 3.00173C49.8975 2.80021 49.4204 2.70169 48.9396 2.7139C46.7797 2.7139 45.3862 4.28843 45.3862 6.37259V11.3711H47.4076V6.32438C47.395 6.11976 47.4257 5.91479 47.4977 5.72264C47.5697 5.53049 47.6814 5.35543 47.8258 5.20871C47.9701 5.06199 48.1438 4.94686 48.3356 4.87074C48.5275 4.79462 48.7333 4.75918 48.9398 4.76671C49.1444 4.75606 49.3489 4.78989 49.539 4.86583C49.729 4.94177 49.9001 5.05798 50.0401 5.20634C50.1802 5.35471 50.2859 5.53164 50.3498 5.72476C50.4137 5.91787 50.4344 6.12252 50.4103 6.32438V11.3711H52.4317V6.32438C52.4204 6.12016 52.452 5.91583 52.5244 5.72433C52.5968 5.53284 52.7085 5.35835 52.8525 5.21192C52.9964 5.06549 53.1694 4.95031 53.3606 4.87368C53.5517 4.79704 53.7569 4.76061 53.9629 4.76671C54.1683 4.75592 54.3735 4.78951 54.5645 4.86516C54.7555 4.94081 54.9276 5.0567 55.069 5.20484C55.2104 5.35297 55.3176 5.5298 55.3834 5.7231C55.4491 5.9164 55.4717 6.12155 55.4496 6.32438V11.3711H57.4694V6.37259C57.4693 4.2244 56.1689 2.7139 53.9628 2.7139Z" fill="#0A0080"/>
<path d="M95.8776 1.64534L95.8751 3.9963C95.6391 3.61241 95.3077 3.29499 94.9128 3.07437C94.4975 2.84781 94.0296 2.73317 93.5557 2.74187C93.0488 2.72467 92.5449 2.82642 92.0851 3.03885C91.6254 3.25128 91.2226 3.56839 90.9097 3.96438C90.1997 4.95862 89.8504 6.16219 89.9185 7.37873C89.8724 8.47741 90.23 9.55532 90.9248 10.4121C91.5956 11.1982 92.9097 11.5438 94.078 11.5438C98.1508 11.5438 98.103 8.07964 98.103 8.07964L98.1048 0.106147C98.1048 0.106147 95.8776 -0.130165 95.8776 1.64534ZM95.4522 9.06959C95.2946 9.29466 95.0816 9.47601 94.8335 9.59643C94.5853 9.71686 94.3103 9.77234 94.0344 9.75763C93.7617 9.77405 93.4894 9.7187 93.2451 9.59718C93.0008 9.47566 92.7932 9.29228 92.6433 9.0656C92.313 8.48663 92.1543 7.82683 92.1856 7.16227C92.1628 6.53452 92.3186 5.91308 92.6352 5.3691C92.7825 5.13252 92.9918 4.94019 93.2409 4.81276C93.49 4.68532 93.7694 4.62759 94.049 4.64577C94.4555 4.64043 94.8502 4.78148 95.1598 5.04277C95.6783 5.48163 95.9384 6.26932 95.9384 7.28767C95.966 7.91723 95.7961 8.53978 95.4522 9.06959Z" fill="#0A0080"/>
<path d="M50.0599 14.7237C48.2382 14.6385 47.3181 15.0693 46.7187 15.5233C45.89 16.1503 45.3862 17.0782 45.3862 18.5608V26.1835H46.457C46.7462 26.187 47.0262 26.0829 47.2419 25.8918C47.3549 25.7933 47.4452 25.6717 47.5064 25.5354C47.5676 25.399 47.5984 25.2512 47.5967 25.1019V22.2532C47.8349 22.6788 48.1975 23.0229 48.6368 23.24C49.0863 23.4385 49.5745 23.5362 50.0664 23.5261C50.5504 23.5351 51.0296 23.4302 51.4648 23.22C51.9 23.0097 52.2788 22.7002 52.5701 22.3167C53.2556 21.3753 53.5991 20.2311 53.5446 19.071C53.602 17.92 53.23 16.7883 52.4997 15.8921C52.1976 15.5394 51.8245 15.2532 51.4043 15.052C50.9842 14.8508 50.5262 14.739 50.0599 14.7237ZM50.814 20.9803C50.6664 21.1938 50.4669 21.3669 50.234 21.4838C50.0012 21.6006 49.7424 21.6574 49.4816 21.649C49.2109 21.6627 48.941 21.6087 48.6968 21.4919C48.4526 21.375 48.242 21.1991 48.0843 20.9803C47.7206 20.4475 47.5489 19.8084 47.5969 19.1667C47.5449 18.4989 47.7034 17.8316 48.0506 17.2572C48.2041 17.0415 48.4095 16.8674 48.6482 16.7506C48.8868 16.6339 49.1512 16.5782 49.4171 16.5886C49.6877 16.5754 49.9574 16.6297 50.2014 16.7465C50.4455 16.8633 50.6562 17.0388 50.8143 17.2572C51.1747 17.8272 51.3455 18.4951 51.3027 19.1667C51.3381 19.8074 51.167 20.4426 50.814 20.9803Z" fill="#0A0080"/>
<path d="M69.0575 15.5118C68.2495 14.8909 67.2349 14.5959 66.2169 14.6858C64.8762 14.7219 63.901 15.094 63.2943 15.9096C62.6516 16.849 62.3328 17.9696 62.3855 19.1038C62.3411 20.0577 62.5793 21.0036 63.0708 21.8247C63.4583 22.4537 64.0336 22.9474 64.7167 23.2374C65.3273 23.4901 66.0025 23.5463 66.647 23.3981C66.9672 23.3254 67.2693 23.1895 67.5354 22.9984C67.8015 22.8073 68.026 22.565 68.1957 22.286V22.8244C68.1967 23.3724 68.0239 23.9069 67.7016 24.352C67.4608 24.6595 67.1227 24.8777 66.7417 24.9715C66.3894 25.0352 66.0259 24.992 65.6987 24.8474C65.3716 24.7029 65.096 24.4639 64.9079 24.1615H62.5776C63.1808 25.9615 64.2648 26.7555 66.2169 26.8961C69.3662 27.1211 70.3698 24.4757 70.3665 23.0486V18.5638C70.3665 17.0812 69.8797 16.1314 69.0575 15.5118ZM68.1317 19.917C68.0875 20.3108 67.9447 20.6874 67.7162 21.0123C67.312 21.5628 66.6845 21.7591 65.8337 21.6013C64.9816 21.4413 64.5556 20.6305 64.5555 19.1689C64.5432 18.5432 64.6745 17.923 64.9395 17.3552C65.0741 17.0908 65.2866 16.8733 65.5488 16.7315C65.8109 16.5897 66.1103 16.5303 66.4072 16.5612C66.6416 16.5482 66.8755 16.5937 67.0875 16.6937C67.2995 16.7936 67.4828 16.9448 67.6206 17.1334C67.9001 17.5197 68.0811 17.9675 68.1479 18.4384C68.2219 18.929 68.2164 19.4282 68.1317 19.917Z" fill="#0A0080"/>
<path d="M60.4942 15.2882C59.7263 14.9162 58.8805 14.73 58.0261 14.745C56.6022 14.745 55.598 15.113 55.0137 15.8491C54.6274 16.3736 54.4105 17.0021 54.3916 17.6515H56.5195C56.5529 17.3729 56.6608 17.1082 56.8322 16.8849C56.9793 16.7438 57.1557 16.6363 57.349 16.57C57.5424 16.5036 57.7481 16.48 57.9516 16.5008C58.3192 16.4795 58.6866 16.5468 59.0224 16.6968C59.1452 16.7681 59.2448 16.8728 59.3093 16.9986C59.3739 17.1244 59.4006 17.266 59.3863 17.4064C59.3843 17.5466 59.3371 17.6825 59.2517 17.7943C59.1663 17.906 59.0471 17.9878 58.9116 18.0276C58.6273 18.1285 58.3311 18.1931 58.0303 18.2196L57.277 18.3104C56.5998 18.3664 55.9394 18.5488 55.3306 18.848C54.9379 19.0692 54.6161 19.396 54.4025 19.7906C54.1888 20.1853 54.0919 20.6318 54.1228 21.0787C54.102 21.4209 54.1585 21.7634 54.2883 22.0811C54.4181 22.3988 54.6178 22.6837 54.8729 22.9149C55.4115 23.3441 56.084 23.5737 56.7748 23.5642C61.582 23.778 61.5279 21.0498 61.5716 20.4833V17.3435C61.5715 16.3376 61.2124 15.6525 60.4942 15.2882ZM59.3764 20.0518C59.4033 20.3354 59.36 20.6213 59.2501 20.8846C59.1403 21.1478 58.9673 21.3805 58.7462 21.5623C58.3571 21.8336 57.8927 21.9785 57.417 21.9769C57.1376 21.9845 56.8641 21.8962 56.6426 21.727C56.5297 21.6259 56.4421 21.5 56.3868 21.3594C56.3316 21.2187 56.3101 21.0673 56.3243 20.917C56.3146 20.7295 56.3584 20.5431 56.4505 20.3791C56.5426 20.2151 56.6794 20.0802 56.8451 19.9896C57.1641 19.8367 57.5061 19.7363 57.8576 19.6923L58.3606 19.5999C58.5609 19.566 58.7579 19.5155 58.9496 19.4489C59.0992 19.3945 59.2424 19.3239 59.3764 19.2383L59.3764 20.0518Z" fill="#0A0080"/>
<path d="M78.7309 15.9809C78.0205 15.0986 76.9437 14.6577 75.5006 14.6582C74.0587 14.6582 72.983 15.0991 72.2734 15.9809C71.562 16.8666 71.1855 17.9713 71.2091 19.1036C71.1801 20.2408 71.5571 21.3517 72.2734 22.24C72.9821 23.1062 74.0578 23.5399 75.5006 23.5409C76.9448 23.5409 78.0216 23.1073 78.7309 22.24C79.4458 21.351 79.8218 20.2404 79.7928 19.1036C79.8165 17.9717 79.4409 16.8672 78.7309 15.9809ZM76.9732 21.0338C76.791 21.2471 76.5641 21.4185 76.3084 21.536C76.0527 21.6535 75.7743 21.7144 75.4925 21.7144C75.2107 21.7144 74.9322 21.6535 74.6765 21.536C74.4208 21.4185 74.194 21.2471 74.0118 21.0338C73.6298 20.4643 73.4468 19.7862 73.4909 19.1036C73.4466 18.422 73.6296 17.7448 74.0118 17.1767C74.1948 16.9647 74.4219 16.7945 74.6775 16.6779C74.9331 16.5612 75.2111 16.5008 75.4925 16.5008C75.7738 16.5008 76.0518 16.5612 76.3074 16.6779C76.563 16.7945 76.7901 16.9647 76.9732 17.1767C77.3517 17.7462 77.5329 18.4227 77.4891 19.1036C77.5327 19.7855 77.3516 20.4629 76.9732 21.0338Z" fill="#0A0080"/>
</svg>
