<svg width="29" height="20" viewBox="0 0 29 20" fill="none" xmlns="http://www.w3.org/2000/svg">
<g id="Mercado Pago">
<path id="Vector" d="M14.4527 0.375488C6.62188 0.375488 0.274414 4.43609 0.274414 9.44558C0.274414 14.4551 6.62188 18.9089 14.4527 18.9089C22.2835 18.9089 28.6308 14.4547 28.6308 9.44558C28.6308 4.43645 22.2831 0.375488 14.4527 0.375488Z" fill="#00BCFF"/>
<path id="Vector_2" d="M9.83939 6.64196C9.83231 6.65578 9.69377 6.7991 9.78363 6.91432C10.0027 7.19443 10.68 7.35499 11.3649 7.2013C11.7726 7.10982 12.2952 6.69394 12.8016 6.29231C13.2849 5.85331 13.8394 5.49975 14.4414 5.24676C14.8259 5.10595 15.246 5.09497 15.6374 5.21548C16.0348 5.36312 16.4036 5.57835 16.7277 5.85166C17.6781 6.56636 21.5003 9.90263 22.1609 10.4791C24.1903 9.63519 26.2914 8.97517 28.4388 8.50704C28.1595 6.79456 27.1295 5.16205 25.5494 3.87923C23.3468 4.80428 20.4758 5.35816 17.844 4.07311C16.9498 3.6683 15.9829 3.44845 15.0016 3.42676C12.9136 3.47533 12.009 4.37883 11.0518 5.33538L9.83939 6.64196Z" fill="white"/>
<path id="Vector_3" d="M22.0055 10.8422C21.9604 10.8019 17.5114 6.90885 16.5033 6.15125C16.152 5.83882 15.7189 5.63317 15.2548 5.55851C15.055 5.5426 14.854 5.56193 14.6609 5.61562C14.0656 5.8398 13.5149 6.16795 13.0345 6.58477C12.4711 7.03378 11.9397 7.45635 11.4462 7.56693C10.85 7.68941 10.2296 7.59621 9.69568 7.30393C9.57067 7.22744 9.46993 7.11706 9.40516 6.98559C9.36949 6.88486 9.36459 6.7758 9.39109 6.67228C9.41759 6.56876 9.47428 6.47546 9.55396 6.40426L10.7819 5.07616C10.9248 4.93387 11.0683 4.79116 11.2158 4.651C10.8371 4.70792 10.4631 4.79216 10.0965 4.90305C9.67439 5.04326 9.23511 5.12518 8.79084 5.14656C8.34313 5.10124 7.89821 5.0317 7.45803 4.93823C6.14552 4.63026 4.86432 4.20151 3.6308 3.65747C1.88516 4.95694 0.748462 6.55243 0.411133 8.34196C0.661942 8.40822 1.31917 8.55808 1.48902 8.59575C5.43947 9.47402 6.66967 10.3788 6.89288 10.5678C7.02416 10.42 7.18723 10.304 7.36983 10.2283C7.55242 10.1527 7.7498 10.1194 7.94711 10.131C8.14441 10.1426 8.33652 10.1988 8.50897 10.2954C8.68142 10.392 8.82974 10.5264 8.94276 10.6885C9.20918 10.4731 9.54168 10.3561 9.88428 10.3572C10.0767 10.3591 10.2676 10.3925 10.4492 10.4562C10.6253 10.5125 10.7873 10.6057 10.9244 10.7296C11.0615 10.8535 11.1706 11.0053 11.2444 11.1747C11.417 11.0965 11.6045 11.0566 11.794 11.0578C12.0207 11.0607 12.2443 11.11 12.4512 11.2028C12.7388 11.3376 12.9721 11.566 13.113 11.8507C13.2538 12.1354 13.2939 12.4595 13.2266 12.7699C13.2789 12.7643 13.3314 12.7615 13.384 12.7616C13.7992 12.7622 14.1972 12.9275 14.4907 13.2212C14.7842 13.5148 14.9493 13.9129 14.9498 14.3281C14.9498 14.5864 14.8854 14.8405 14.7624 15.0676C15.1713 15.3175 15.6436 15.4439 16.1226 15.4318C16.242 15.4319 16.3602 15.4073 16.4697 15.3595C16.5792 15.3118 16.6776 15.2419 16.7588 15.1544C16.7982 15.0989 16.8393 15.0339 16.8011 14.9871L15.6864 13.7492C15.6864 13.7492 15.5031 13.5756 15.5636 13.5088C15.6263 13.4399 15.7397 13.5386 15.8202 13.6057C16.3873 14.0793 17.0796 14.7944 17.0796 14.7944C17.0918 14.8021 17.1373 14.8928 17.3934 14.9387C17.5465 14.9654 17.7034 14.9609 17.8548 14.9256C18.0061 14.8903 18.1488 14.8249 18.2743 14.7332C18.3454 14.6737 18.4104 14.6073 18.4683 14.5348C18.4644 14.5387 18.46 14.5421 18.4553 14.5449C18.5334 14.4369 18.5727 14.3057 18.567 14.1725C18.5612 14.0393 18.5106 13.912 18.4234 13.8112L17.1221 12.3499C17.1221 12.3499 16.9359 12.1776 16.9998 12.109C17.0562 12.0488 17.1758 12.1395 17.2575 12.2072C17.6693 12.5517 18.2514 13.1354 18.8093 13.6825C18.9953 13.8083 19.2164 13.8718 19.4408 13.8641C19.6652 13.8563 19.8813 13.7775 20.0582 13.6392C20.203 13.5592 20.3228 13.4407 20.4044 13.2967C20.4859 13.1528 20.5259 12.989 20.52 12.8237C20.4919 12.617 20.3951 12.4257 20.2452 12.2805L18.4683 10.4933C18.4683 10.4933 18.2801 10.3329 18.3467 10.252C18.4012 10.1837 18.5223 10.2819 18.6028 10.3488C19.1687 10.8226 20.7013 12.2281 20.7013 12.2281C20.8819 12.3447 21.0932 12.4047 21.3081 12.4004C21.5229 12.3961 21.7317 12.3278 21.9075 12.2041C22.0204 12.1381 22.1155 12.0455 22.1845 11.9343C22.2535 11.8232 22.2943 11.6969 22.3034 11.5664C22.3086 11.4314 22.2848 11.2968 22.2334 11.1718C22.182 11.0469 22.1043 10.9344 22.0055 10.8422Z" fill="white"/>
<path id="Vector_4" d="M13.3839 13.1074C13.1751 13.1367 12.969 13.1824 12.7674 13.244C12.7454 13.2299 12.7843 13.119 12.8099 13.0552C12.8367 12.992 13.1997 11.8996 12.3148 11.5206C12.1167 11.4143 11.8897 11.3748 11.6675 11.408C11.4452 11.4411 11.2396 11.5451 11.0812 11.7045C11.0442 11.7431 11.0273 11.7399 11.0232 11.6911C11.0179 11.4872 10.949 11.29 10.8259 11.1273C10.7029 10.9645 10.532 10.8444 10.3372 10.7837C10.0614 10.6988 9.76547 10.7053 9.49361 10.8022C9.22174 10.8992 8.98846 11.0813 8.82851 11.3216C8.80002 11.1062 8.69975 10.9067 8.5439 10.7554C8.38805 10.604 8.18573 10.5096 7.96962 10.4875C7.75351 10.4653 7.53624 10.5166 7.3529 10.6332C7.16957 10.7497 7.03089 10.9247 6.95927 11.1298C6.88765 11.3349 6.88727 11.5582 6.95819 11.7635C7.02911 11.9688 7.16719 12.1443 7.35012 12.2615C7.53305 12.3786 7.75014 12.4307 7.96633 12.4093C8.18251 12.3879 8.38516 12.2942 8.54153 12.1434C8.54712 12.1485 8.54925 12.1575 8.54649 12.1759C8.48103 12.4751 8.5255 12.7879 8.67176 13.0571C8.81802 13.3262 9.05629 13.5337 9.34299 13.6416C9.49786 13.7013 9.66568 13.7194 9.82973 13.6941C9.99377 13.6688 10.1483 13.6009 10.278 13.4973C10.3548 13.4432 10.3672 13.466 10.3564 13.5383C10.3235 13.7623 10.3654 14.2421 11.038 14.5144C11.2046 14.5961 11.3931 14.6218 11.5756 14.5879C11.758 14.554 11.9247 14.4622 12.0508 14.3262C12.1374 14.2477 12.161 14.2605 12.1655 14.3823C12.1763 14.6209 12.257 14.851 12.3974 15.0442C12.5379 15.2374 12.732 15.385 12.9556 15.4689C13.1792 15.5527 13.4226 15.5691 13.6554 15.5159C13.8882 15.4627 14.1003 15.3423 14.2654 15.1696C14.4304 14.997 14.5411 14.7797 14.5837 14.5447C14.6264 14.3097 14.599 14.0673 14.5052 13.8477C14.4113 13.6281 14.2551 13.4409 14.0557 13.3093C13.8564 13.1777 13.6229 13.1075 13.384 13.1074H13.3839Z" fill="white"/>
<path id="Vector_5" d="M14.4502 0C6.47024 0 0.00162978 4.24431 0.00162978 9.45033C0.00162978 9.58496 0 9.95641 0 10.0036C0 15.5271 5.65393 20 14.4484 20C23.296 20 28.8983 15.5281 28.8983 10.0046V9.45033C28.8982 4.24431 22.4295 0 14.4502 0ZM28.2469 8.40298C26.165 8.86366 24.1324 9.5244 22.1775 10.376C20.8067 9.17993 17.6394 6.42574 16.7817 5.78219C16.4491 5.50247 16.0708 5.28228 15.6633 5.13134C15.4857 5.07536 15.3007 5.04645 15.1145 5.04559C14.8774 5.04874 14.6423 5.08837 14.4173 5.16308C13.8149 5.41317 13.2598 5.76462 12.7761 6.20217L12.7485 6.22393C12.2508 6.61968 11.7363 7.02904 11.3471 7.11563C11.1768 7.15404 11.0028 7.17354 10.8282 7.17377C10.6531 7.18837 10.4767 7.16817 10.3094 7.11434C10.1421 7.0605 9.98712 6.9741 9.85335 6.86011C9.82911 6.82904 9.84513 6.77901 9.90153 6.70709L9.90879 6.69731L11.1149 5.39805C12.0594 4.45356 12.9515 3.56178 15.0046 3.51466C15.0388 3.51367 15.0733 3.51303 15.1071 3.51303C16.0396 3.55108 16.956 3.76814 17.8065 4.1524C18.9493 4.72361 20.2077 5.0254 21.4852 5.03461C22.8826 5.01049 24.258 4.6816 25.5152 4.07091C26.98 5.30282 27.9515 6.78652 28.2469 8.40298ZM14.4527 0.558059C18.6882 0.558059 22.4784 1.77207 25.0264 3.68412C23.9147 4.19196 22.7101 4.46502 21.488 4.48623C20.2925 4.47649 19.115 4.19308 18.046 3.65773C17.1217 3.23586 16.1233 3 15.1079 2.96358C15.0694 2.96358 15.0304 2.96418 14.9921 2.96504C13.7691 2.94713 12.5803 3.36918 11.6423 4.15428C11.0744 4.18404 10.5127 4.28658 9.97087 4.4594C9.59004 4.58643 9.19402 4.66229 8.79321 4.68502C8.64217 4.68502 8.37046 4.67121 8.34608 4.67014C6.90505 4.41648 5.49164 4.02532 4.12523 3.50205C6.66822 1.69494 10.3524 0.558059 14.4527 0.558059ZM3.62527 3.87931C5.38753 4.6001 7.52552 5.1567 8.2016 5.20049C8.39019 5.2129 8.59111 5.23422 8.79215 5.23465C9.24434 5.21271 9.69148 5.12963 10.1214 4.98767C10.3773 4.91592 10.6596 4.83766 10.9566 4.78097C10.8771 4.85859 10.7981 4.93746 10.7185 5.01714L9.49366 6.34223C9.40051 6.4248 9.3346 6.5337 9.30466 6.65453C9.27471 6.77535 9.28213 6.90242 9.32593 7.01894C9.39703 7.16632 9.50876 7.29031 9.64796 7.37633C10.0442 7.60028 10.4932 7.71417 10.9482 7.70618C11.1226 7.7074 11.2965 7.6892 11.4669 7.6519C11.9806 7.53689 12.5194 7.10759 13.0898 6.65391C13.5624 6.24588 14.1021 5.92292 14.6851 5.69939C14.8302 5.66082 14.9796 5.64034 15.1298 5.63841C15.1682 5.63811 15.2067 5.64042 15.2448 5.64532C15.6934 5.71898 16.1119 5.91861 16.4514 6.22095C17.4571 6.97671 21.9067 10.8694 21.9505 10.9078C22.0389 10.9916 22.1084 11.0932 22.1544 11.206C22.2005 11.3187 22.222 11.44 22.2176 11.5617C22.2095 11.6784 22.1728 11.7913 22.1108 11.8904C22.0487 11.9896 21.9632 12.0719 21.8618 12.1302C21.6889 12.2458 21.4862 12.309 21.2781 12.3121C21.0955 12.3123 20.9166 12.2605 20.7623 12.1627C20.746 12.1493 19.2215 10.7513 18.6601 10.2814C18.5899 10.2072 18.4974 10.1578 18.3967 10.1408C18.3743 10.1403 18.3521 10.1451 18.3319 10.1546C18.3117 10.1641 18.2939 10.1782 18.28 10.1957C18.1917 10.3044 18.2906 10.4552 18.4072 10.554L20.188 12.345C20.3209 12.4744 20.4074 12.6439 20.4344 12.8273C20.439 12.9774 20.4019 13.1259 20.3273 13.2562C20.2527 13.3865 20.1434 13.4936 20.0116 13.5656C19.8264 13.696 19.6067 13.7687 19.3802 13.7743C19.1993 13.7743 19.0225 13.7206 18.8721 13.62L18.6168 13.3685C18.1497 12.9091 17.6676 12.4339 17.3147 12.1395C17.2435 12.0661 17.1503 12.0178 17.0493 12.0017C17.0282 12.0014 17.0074 12.0054 16.988 12.0137C16.9687 12.022 16.9513 12.0342 16.9371 12.0497C16.8968 12.0944 16.8687 12.1747 16.9696 12.308C16.9967 12.3439 17.0268 12.3774 17.0595 12.4082L18.3587 13.868C18.4337 13.953 18.4775 14.061 18.4829 14.1742C18.4883 14.2875 18.4549 14.3992 18.3882 14.4909L18.3421 14.549C18.3041 14.5902 18.2636 14.6292 18.221 14.6657C18.0372 14.8007 17.814 14.8714 17.586 14.8669C17.5271 14.8672 17.4683 14.8622 17.4104 14.8521C17.3156 14.8446 17.2258 14.8067 17.1542 14.7441L17.138 14.7277C17.0673 14.6543 16.4123 13.9856 15.8705 13.5331C15.8032 13.4616 15.7144 13.4141 15.6176 13.3979C15.5954 13.3977 15.5735 13.4023 15.5532 13.4113C15.5329 13.4203 15.5148 13.4336 15.5001 13.4502C15.3932 13.5677 15.5542 13.7431 15.6224 13.8075L16.7302 15.0301C16.7208 15.0572 16.7068 15.0824 16.6888 15.1047C16.649 15.1596 16.5148 15.2942 16.1127 15.3446C16.0639 15.3508 16.0148 15.3538 15.9656 15.3535C15.5842 15.329 15.2132 15.219 14.8802 15.0316C14.9989 14.7796 15.052 14.5018 15.0347 14.2239C15.0173 13.946 14.9301 13.6769 14.781 13.4417C14.6319 13.2065 14.4258 13.0128 14.1818 12.8785C13.9379 12.7443 13.6639 12.6738 13.3855 12.6737C13.366 12.6737 13.3453 12.6743 13.3258 12.6749C13.3732 12.3602 13.3171 12.0385 13.1658 11.7585C13.0145 11.4785 12.7763 11.2552 12.4871 11.1223C12.2695 11.0247 12.0342 10.9729 11.7958 10.97C11.6226 10.9692 11.4508 11.0003 11.2889 11.0619C11.1205 10.7348 10.8295 10.4877 10.4794 10.3745C10.2888 10.3069 10.0882 10.2716 9.88598 10.2701C9.55427 10.2682 9.23057 10.3719 8.96171 10.5662C8.8395 10.4127 8.68623 10.2867 8.51193 10.1965C8.33763 10.1063 8.14624 10.054 7.95031 10.043C7.75438 10.0319 7.55833 10.0624 7.37501 10.1324C7.19168 10.2025 7.02522 10.3104 6.88654 10.4493C6.54142 10.1855 5.17279 9.31612 1.50932 8.4844C1.33433 8.44475 0.937125 8.33102 0.686953 8.25765C1.03062 6.6132 2.07556 5.11146 3.62534 3.87931H3.62527ZM10.4207 13.4156L10.381 13.3801H10.341C10.2998 13.3832 10.2606 13.399 10.2289 13.4254C10.0715 13.5466 9.87986 13.6148 9.68133 13.6203C9.57671 13.6195 9.47315 13.5993 9.37582 13.561C9.10697 13.4606 8.88368 13.2661 8.74743 13.0135C8.61119 12.761 8.57126 12.4675 8.63505 12.1877C8.63943 12.1674 8.63829 12.1462 8.63176 12.1265C8.62524 12.1067 8.61355 12.089 8.59792 12.0753L8.53797 12.0263L8.48192 12.0798C8.31868 12.2383 8.10006 12.3269 7.87252 12.3268C7.70279 12.3275 7.53646 12.2791 7.39352 12.1876C7.25058 12.0961 7.1371 11.9652 7.0667 11.8108C6.99631 11.6563 6.97201 11.4849 6.9967 11.3169C7.0214 11.149 7.09405 10.9918 7.20593 10.8641C7.3178 10.7365 7.46415 10.6438 7.62739 10.5973C7.79063 10.5508 7.96383 10.5525 8.12617 10.602C8.28852 10.6515 8.43311 10.7469 8.54259 10.8766C8.65206 11.0063 8.72177 11.1649 8.74332 11.3332L8.77369 11.57L8.90379 11.3696C9.05035 11.1421 9.26808 10.9696 9.52301 10.8789C9.77794 10.7882 10.0557 10.7844 10.313 10.8681C10.4907 10.9239 10.6465 11.034 10.7584 11.1829C10.8704 11.3318 10.9328 11.512 10.937 11.6983C10.9465 11.8131 11.0283 11.8187 11.0441 11.8187C11.0639 11.8173 11.0832 11.8119 11.1007 11.8027C11.1183 11.7935 11.1338 11.7808 11.1462 11.7653C11.23 11.6778 11.3308 11.6084 11.4424 11.5613C11.554 11.5142 11.6741 11.4903 11.7952 11.4913C11.963 11.495 12.1284 11.5323 12.2816 11.6011C13.1117 11.9572 12.7353 13.0121 12.7308 13.0229C12.6592 13.1977 12.6564 13.275 12.7235 13.3195L12.7562 13.3349H12.7806C12.8359 13.3287 12.8901 13.3145 12.9414 13.2929C13.0828 13.237 13.2323 13.2039 13.3841 13.1951H13.3845C13.5332 13.1951 13.6805 13.2244 13.8178 13.2814C13.9552 13.3383 14.08 13.4218 14.1851 13.527C14.2903 13.6321 14.3736 13.757 14.4305 13.8944C14.4874 14.0318 14.5166 14.179 14.5166 14.3278C14.5166 14.4765 14.4872 14.6237 14.4303 14.7611C14.3733 14.8984 14.2899 15.0233 14.1847 15.1284C14.0795 15.2335 13.9547 15.3169 13.8173 15.3738C13.6799 15.4306 13.5326 15.4599 13.3839 15.4598C13.0922 15.4616 12.8113 15.3499 12.6004 15.1483C12.3896 14.9467 12.2654 14.671 12.2542 14.3795C12.2525 14.3277 12.2471 14.1899 12.1302 14.1899C12.077 14.196 12.0281 14.2218 11.993 14.2622C11.8485 14.4161 11.6488 14.5062 11.4378 14.5129C11.3119 14.5103 11.1876 14.4833 11.0719 14.4335C10.4271 14.1717 10.4182 13.729 10.4442 13.5509C10.4506 13.528 10.4518 13.504 10.4477 13.4806C10.4436 13.4572 10.4344 13.435 10.4207 13.4156ZM14.4526 18.3332C6.77972 18.3333 0.559795 14.354 0.559795 9.44565C0.560987 9.24945 0.572162 9.05343 0.593276 8.85837C0.654535 8.873 1.2639 9.01869 1.3901 9.04707C5.1324 9.8784 6.36901 10.7427 6.57798 10.9061C6.48912 11.1192 6.45425 11.3509 6.47646 11.5807C6.49867 11.8105 6.57728 12.0312 6.70531 12.2233C6.83334 12.4154 7.00682 12.573 7.21035 12.6819C7.41388 12.7909 7.64117 12.8479 7.87203 12.8479C7.9583 12.848 8.0444 12.84 8.12918 12.8241C8.18445 13.102 8.31103 13.3608 8.49648 13.575C8.68193 13.7892 8.91989 13.9516 9.18701 14.0461C9.34621 14.1086 9.51555 14.1412 9.68658 14.1424C9.79423 14.1431 9.90151 14.1298 10.0058 14.103C10.1343 14.3735 10.335 14.6032 10.5857 14.7669C10.8365 14.9306 11.1276 15.0219 11.4269 15.0307C11.573 15.0307 11.7179 15.0048 11.8549 14.9542C11.9587 15.2082 12.1242 15.4323 12.3363 15.6062C12.5485 15.7801 12.8006 15.8984 13.07 15.9504C13.3393 16.0024 13.6174 15.9864 13.879 15.9039C14.1407 15.8214 14.3776 15.675 14.5684 15.4779C14.9952 15.7266 15.4752 15.8699 15.9685 15.8959C16.0393 15.8957 16.1101 15.8913 16.1803 15.8826C16.3625 15.877 16.5413 15.8327 16.705 15.7526C16.8686 15.6725 17.0134 15.5585 17.1295 15.4181C17.1515 15.3879 17.1711 15.3561 17.1881 15.323C17.3336 15.3673 17.4845 15.3909 17.6365 15.3931C17.9651 15.3865 18.2827 15.273 18.541 15.0697C18.8137 14.8907 19.0054 14.6118 19.0748 14.2931C19.0754 14.2895 19.0758 14.286 19.076 14.2824C19.1757 14.3027 19.2771 14.3129 19.3788 14.3129C19.7109 14.3088 20.0344 14.2062 20.3082 14.0182C20.5164 13.8974 20.6882 13.7228 20.8056 13.5126C20.9229 13.3024 20.9814 13.0644 20.9749 12.8238C21.0759 12.8448 21.1787 12.8555 21.2818 12.8557C21.5917 12.8523 21.894 12.7593 22.1521 12.5878C22.3237 12.483 22.468 12.3391 22.5733 12.1679C22.6786 11.9966 22.7419 11.8029 22.758 11.6026C22.7786 11.3237 22.7113 11.0455 22.5657 10.8068C24.4324 10.0449 26.3599 9.44127 28.3277 9.00235C28.339 9.14935 28.3453 9.29717 28.3453 9.44594C28.3453 14.354 22.1254 18.3333 14.4527 18.3333L14.4526 18.3332Z" fill="#0A0080"/>
</g>
</svg>
