<svg width="16" height="16" viewBox="0 0 16 16" fill="none" xmlns="http://www.w3.org/2000/svg">
<path d="M7.08172 8.67602C7.08172 7.81274 7.69471 7.37089 8.24985 6.97074L8.26472 6.96002L8.27165 6.95515C8.74983 6.61914 9.17472 6.32059 9.17472 5.81602C9.17472 5.30902 8.78472 4.88002 7.93972 4.88002C7.14672 4.88002 6.57472 5.24402 6.13272 5.79002L5.26172 4.81502C5.92472 4.00902 6.92572 3.52802 8.09572 3.52802C9.73372 3.52802 10.7347 4.39902 10.7347 5.56902C10.7347 6.64802 10.0067 7.16802 9.35672 7.62302L9.29581 7.66783C8.82595 8.01312 8.40772 8.32048 8.40772 8.81902C8.40772 9.02702 8.52472 9.26102 8.69372 9.40402L7.54972 9.78102C7.23772 9.48202 7.08172 9.10502 7.08172 8.67602Z" fill="#009EE3"/>
<path d="M7.10772 11.562C7.10772 11.068 7.52372 10.652 8.01772 10.652C8.51172 10.652 8.92772 11.068 8.92772 11.562C8.92772 12.056 8.51172 12.472 8.01772 12.472C7.52372 12.472 7.10772 12.056 7.10772 11.562Z" fill="#009EE3"/>
<path fill-rule="evenodd" clip-rule="evenodd" d="M7.99929 15.8C12.3071 15.8 15.7994 12.3078 15.7994 7.99996C15.7994 3.6921 12.3071 0.19989 7.99929 0.19989C3.69143 0.19989 0.199219 3.6921 0.199219 7.99996C0.199219 12.3078 3.69143 15.8 7.99929 15.8ZM7.99929 14.6C4.35417 14.6 1.39922 11.6451 1.39922 7.99996C1.39922 4.35484 4.35417 1.39989 7.99929 1.39989C11.6444 1.39989 14.5994 4.35484 14.5994 7.99996C14.5994 11.6451 11.6444 14.6 7.99929 14.6Z" fill="#009EE3"/>
</svg>
