<svg width="16" height="16" viewBox="0 0 16 16" fill="none" xmlns="http://www.w3.org/2000/svg">
<path d="M7.0827 8.67633C7.0827 7.81304 7.69569 7.37119 8.25083 6.97105L8.2657 6.96033L8.27263 6.95546C8.75081 6.61945 9.1757 6.32089 9.1757 5.81633C9.1757 5.30933 8.7857 4.88033 7.9407 4.88033C7.1477 4.88033 6.5757 5.24433 6.1337 5.79033L5.2627 4.81533C5.9257 4.00933 6.9267 3.52833 8.0967 3.52833C9.7347 3.52833 10.7357 4.39933 10.7357 5.56933C10.7357 6.64833 10.0077 7.16833 9.35769 7.62333L9.29678 7.66813C8.82693 8.01343 8.4087 8.32078 8.4087 8.81933C8.4087 9.02733 8.5257 9.26133 8.6947 9.40433L7.5507 9.78133C7.2387 9.48233 7.0827 9.10533 7.0827 8.67633Z" fill="#3483FA"/>
<path d="M7.1087 11.5623C7.1087 11.0683 7.5247 10.6523 8.0187 10.6523C8.5127 10.6523 8.9287 11.0683 8.9287 11.5623C8.9287 12.0563 8.5127 12.4723 8.0187 12.4723C7.5247 12.4723 7.1087 12.0563 7.1087 11.5623Z" fill="#3483FA"/>
<path fill-rule="evenodd" clip-rule="evenodd" d="M8.00026 15.8003C12.3081 15.8003 15.8003 12.3081 15.8003 8.00026C15.8003 3.6924 12.3081 0.200195 8.00026 0.200195C3.6924 0.200195 0.200195 3.6924 0.200195 8.00026C0.200195 12.3081 3.6924 15.8003 8.00026 15.8003ZM8.00026 14.6003C4.35515 14.6003 1.4002 11.6454 1.4002 8.00026C1.4002 4.35515 4.35515 1.4002 8.00026 1.4002C11.6454 1.4002 14.6003 4.35515 14.6003 8.00026C14.6003 11.6454 11.6454 14.6003 8.00026 14.6003Z" fill="#3483FA"/>
</svg>
